<?xml version="1.0"?><svg version="1.1" id="Layer_1" xmlns="http://www.w3.org/2000/svg" x="0" y="0" viewBox="0 0 100 100" xml:space="preserve"><path id="XMLID_5_" d="M88.495 14.232c-9.558 1.437-20.952 2.07-30.378 1.026-1.282-.142-1.958 1.478-.965 2.301l7.214 5.984C58.257 28.44 53.552 33.72 50.241 39.448c-3.901-7.206-9.335-12.423-14.465-16.337l7.101-6.071c.98-.838.281-2.448-.999-2.287-9.41 1.184-20.813.721-30.392-.571-1.172-.158-1.931 1.181-1.195 2.106 6.02 7.561 12.262 17.115 16.068 25.801.518 1.181 2.258.957 2.475-.314l1.426-8.347c9.735 7.981 13.975 16.892 13.975 28.935v23.468h11.501V62.363c0-11.101 4.568-20.297 14.277-28.585l1.547 8.305c.236 1.268 1.98 1.466 2.48.277 3.676-8.742 9.775-18.389 15.681-26.041.723-.935-.057-2.263-1.226-2.087z" fill="#323232"/><metadata xmlns:d="https://loading.io/stock/">
<d:name>diverse</d:name>
<d:tags>break,fork,diverge,separate,clone,diverse,arrow</d:tags>
<d:license>by</d:license>
<d:slug>27voz2</d:slug>
</metadata></svg>