<?xml version="1.0"?><svg version="1.1" id="Layer_1" xmlns="http://www.w3.org/2000/svg" x="0" y="0" viewBox="0 0 100 100" xml:space="preserve"><path id="XMLID_52_" d="M88.755 57.596L76.31 55.825l-19.738-2.809-4.56-.649 1.923-11.44 3.049-18.142.706-4.201 5.948 7.47 3.411 4.283c.142.178.475.798.7.879.28.1 1.145-.542 1.412-.718.742-.487 1.411-1.089 2.075-1.675 1.601-1.415 3.105-2.95 4.531-4.541.407-.453 1.16-1.013 1.3-1.629l-.038.162c1.794-3.327 1.711-6.67.04-10.039a26.235 26.235 0 0 0-1.264-2.242c-.147-.235-1.072-1.314-1.026-1.629.027-.186 1.324-1.385 1.542-1.404.374-.033 1.404.77 1.723.956.635.37 1.266.746 1.876 1.156 1.594 1.07 3.056 2.363 4.26 3.862 2.402 2.99 3.508 6.759 3.457 10.569-.071 5.306-1.976 10.861-4.674 15.424-.91 1.539-1.997 2.966-3.049 4.408-.185.253-1.016 1.097-.99 1.372.008.086.184.212.228.287.747 1.264 1.922 2.413 2.835 3.56l6.768 8.501z" fill="#323232"/><path id="XMLID_346_" d="M31.184 61.829l4.389-10.198c.101-.234.696-1.184.619-1.437-.046-.149-.765-.354-.918-.42l-5.905-2.543-4.823-2.077 1.062 2.668.621 1.559c.213.536.369.528-.163.821-2.092 1.151-3.678 2.895-5.238 4.667-1.658 1.882-3.298 3.79-4.649 5.91-2.611 4.099-4.351 8.686-4.893 13.522-.049.435-.173.901.496.818.424-.053.823-1.404 1.041-1.817a36.687 36.687 0 0 1 3.751-5.757 40.942 40.942 0 0 1 5.786-5.891c2.169-1.804 4.636-2.927 6.985-4.444l1.839 4.619z" fill="#849b87"/><path id="XMLID_351_" d="M37.58 76.496c.461-1.848 1.749-3.269 2.662-4.905l4.117 3.241-1.314-11.024c-.03-.253.009-1.373-.185-1.554-.114-.106-.839.077-1.004.097l-6.384.759-5.215.62 4.086 3.217c-4.243 4.41-3.11 12.194-.687 17.177.8 1.646 1.802 3.194 2.907 4.65.913 1.202 1.949 2.571 3.153 3.503.292.226.338.364.649-.001.074-.087.199-.113.217-.206.043-.228-.356-.777-.449-.994a43.593 43.593 0 0 1-1.721-4.739c-.579-1.944-.977-3.945-1.098-5.971-.067-1.126-.045-2.248.163-3.358.015-.093.118-.676.103-.512z" fill="#b3b4b4"/><path id="XMLID_352_" d="M54.972 67.368l-7.584 10.174 2.14-.312 1.669-.244c.305-.045.909-.255 1.21-.177.318.083.357.374.565.724.511.86 1.102 1.676 1.658 2.508 1.17 1.75 2.438 3.358 3.983 4.795 1.404 1.306 3.001 2.467 4.715 3.334.452.229 1.024.735 1.292.033.163-.425-.501-1.098-.763-1.531-1.064-1.761-1.999-3.612-2.705-5.547a34.922 34.922 0 0 1-.937-2.886c-.107-.399-.702-2.182-.395-2.512.108-.116.745-.109.896-.131l1.764-.258 2.668-.389-10.176-7.581z" fill="#acbd81"/><metadata xmlns:d="https://loading.io/stock/">
<d:name>fight</d:name>
<d:tags>force,war,combat,resist,battle,against,hostile,enemy,fight,arrow</d:tags>
<d:license>by</d:license>
<d:slug>4p1p61</d:slug>
</metadata></svg>