<?xml version="1.0"?><svg version="1.1" id="Layer_1" xmlns="http://www.w3.org/2000/svg" x="0" y="0" viewBox="0 0 100 100" xml:space="preserve"><path d="M92.5 33.321L76.332 49.497V38.442H63.905a23.95 23.95 0 0 0-8.5-10.241h20.927V17.148L92.5 33.321z" fill="gray"/><path d="M59.346 38.442a19.58 19.58 0 0 1 2.431 9.467v5.078c0 5.627 4.826 8.571 9.594 8.571h4.96V50.503L92.5 66.679 76.332 82.852V71.799h-4.96c-11.308 0-19.835-8.088-19.835-18.812v-5.078c0-5.22-4.247-9.467-9.467-9.467H7.5V28.201h34.569c7.438 0 13.923 4.143 17.277 10.241z" fill="#323232"/><metadata xmlns:d="https://loading.io/stock/">
<d:name>fork</d:name>
<d:tags>branch,separate,right,ease,fork,arrow</d:tags>
<d:license>by</d:license>
<d:slug>51u6kc</d:slug>
</metadata></svg>