<?xml version="1.0"?><svg version="1.1" id="Layer_1" xmlns="http://www.w3.org/2000/svg" x="0" y="0" viewBox="0 0 100 100" xml:space="preserve"><path d="M58.422 59.903c5.2 2.339 8.063 3.628 8.063 11.341v4.99H55.364L71.638 92.5l16.27-16.266h-11.12v-4.99c0-14.375-8.508-18.203-14.138-20.737-4.77-2.146-7.182-3.232-7.498-8.879V7.5l-.006 34.521c-.309 6.163-2.424 10.048-5.145 12.71 2.598 2.542 5.749 3.969 8.421 5.172z" fill="gray"/><path d="M28.366 92.5l16.27-16.266h-11.12v-4.99c0-7.713 2.864-9.002 8.063-11.341 2.672-1.202 5.823-2.63 8.422-5.172 2.721-2.662 4.836-6.547 5.145-12.71L55.152 7.5H44.849v34.128c-.316 5.648-2.728 6.733-7.498 8.879-5.63 2.533-14.138 6.362-14.138 20.737v4.99H12.091L28.366 92.5z" fill="#323232"/><metadata xmlns:d="https://loading.io/stock/">
<d:name>fork</d:name>
<d:tags>branch,down,current,flow,separate,fork,arrow</d:tags>
<d:license>by</d:license>
<d:slug>5ny6g1</d:slug>
</metadata></svg>