<?xml version="1.0"?><svg version="1.1" id="Layer_1" xmlns="http://www.w3.org/2000/svg" x="0" y="0" viewBox="0 0 100 100" xml:space="preserve"><path d="M40.097 58.422c-2.339 5.2-3.628 8.063-11.341 8.063h-4.99V55.364L7.5 71.638l16.266 16.27v-11.12h4.99c14.375 0 18.203-8.508 20.737-14.138 2.146-4.77 3.232-7.182 8.879-7.498H92.5l-34.521-.006c-6.163-.309-10.048-2.424-12.71-5.145-2.542 2.598-3.969 5.749-5.172 8.421z" fill="gray"/><path d="M7.5 28.366l16.266 16.27v-11.12h4.99c7.713 0 9.002 2.864 11.341 8.063 1.202 2.672 2.63 5.823 5.172 8.422 2.662 2.721 6.547 4.836 12.71 5.145l34.521.006V44.849H58.372c-5.648-.316-6.733-2.728-8.879-7.498-2.533-5.63-6.362-14.138-20.737-14.138h-4.99V12.091L7.5 28.366z" fill="#323232"/><metadata xmlns:d="https://loading.io/stock/">
<d:name>fork</d:name>
<d:tags>break,left,west,branch,tree,growth,clone,separate,thread,fork,arrow</d:tags>
<d:license>by</d:license>
<d:slug>60d0hj</d:slug>
</metadata></svg>