<?xml version="1.0"?><svg version="1.1" id="Layer_1" xmlns="http://www.w3.org/2000/svg" x="0" y="0" viewBox="0 0 100 100" xml:space="preserve"><path d="M41.578 40.097c-5.2-2.339-8.063-3.628-8.063-11.341v-4.99h11.121L28.362 7.5l-16.27 16.266h11.12v4.99c0 14.375 8.508 18.203 14.138 20.737 4.77 2.146 7.182 3.232 7.498 8.879V92.5l.006-34.521c.309-6.163 2.424-10.048 5.145-12.71-2.598-2.542-5.748-3.969-8.421-5.172z" fill="gray"/><path d="M71.635 7.5l-16.27 16.266h11.12v4.99c0 7.713-2.864 9.002-8.063 11.341-2.672 1.202-5.823 2.63-8.422 5.172-2.721 2.662-4.836 6.547-5.145 12.71L44.848 92.5h10.303V58.372c.316-5.648 2.728-6.733 7.498-8.879 5.63-2.533 14.138-6.362 14.138-20.737v-4.99h11.121L71.635 7.5z" fill="#323232"/><metadata xmlns:d="https://loading.io/stock/">
<d:name>fork</d:name>
<d:tags>break,top,branch,tree,growth,clone,separate,thread,fork,arrow</d:tags>
<d:license>by</d:license>
<d:slug>6msy84</d:slug>
</metadata></svg>