<?xml version="1.0"?><svg version="1.1" id="Layer_1" xmlns="http://www.w3.org/2000/svg" x="0" y="0" viewBox="0 0 100 100" xml:space="preserve"><g id="XMLID_1_"><path id="XMLID_2_" d="M17.597 58.102a4.683 4.683 0 0 1-.116.098c.004.019.02.029.019.051a.525.525 0 0 0 .097-.149z" fill="#999998"/><path id="XMLID_6_" d="M17.804 57.162l-.047.031.002.001c.018-.011.028-.02.045-.032z" fill="#999998"/><path id="XMLID_7_" d="M18.1 56.872c.002.066-.121.171-.297.291.272-.185.434-.312.297-.291z" fill="#999998"/><path id="XMLID_10_" d="M84.735 55.865c-.652-.274.386-1.351-.387-1.331-1.189-.142-.727.457-1.712.364l.155.148c-3.03 1.37-5.795 3.051-8.425 4.947-1.273 1.819-3.326 3.02-4.91 4.613-1.67 1.755-3.368 3.779-4.583 5.534-.254.461-.87.294-1.383.346-1.249 1.464-3.218 2.889-4.609 4.559a.393.393 0 0 1 .094-.052c-.396.414-.862.638-1.325.86l-.346.169c-.069.019-.101.01-.148.021-.085.015-.152.047-.199.124.1.152.065.197.094.298-.283-.397-.374.552-.945 1.778-.451.21-1.096.244-1.124-.007a.469.469 0 0 1-.175.013 3.021 3.021 0 0 1-.576-.868l-.096-.236c-.019-.042-.018-.073-.05-.123l-.15-.181-.379-.46a.98.98 0 0 0 .246-.288c-.078-.208-.259-.095-.432-.114.135-.139.232-.382.586-.396-.437-.115.234-.3.066-.481-.214-.153-.179.034-.396-.067.012-.271.026-.649.081-.868.318-.119.871-.427 1.402-.304-.022.404-.849-.06-.689.342.729-.262.25.343.828.352.323-.171.294-.435.173-.646l-.094.055c-.122-.184-.329-.56.051-.813.268.023.456-.089.537.047l.025-.274c-.086-.026-.175-.052-.229.032-.215-.107-.112-.246.035-.359.277-.053-1.298-1.327-1.12-1.302-.012-.094.077-.161.14-.225.242.463 1.043 1.505.955 1.307.293-.188-1.588-2.083-1.069-2.253-.033-.143-.107-.313-.388-.258.116-.256.548.032.798-.162-.045-.001-.141.025-.135-.031l.345-.194c-.48-.346.071-.944-.538-1.303.315.095.862.19 1.155.426l-.147.055c.089.03.2.233.483.207.175-.255.111-.457-.184-.693.074-.052.147-.112.223-.154a6.998 6.998 0 0 1-.111.011c.171-.095.2-.088.313-.065.021.003.044.006.065.013.822-.204-.583-.914-.178-1.382-.125-.123-.142-.004-.311-.157.303-.47.539-.794.703-1.273-.367-.132-.511-.137-.875.063l.096-.362c.969.278.884-.709 1.852-.397.215-.114.251-.329.089-.521-.241-.009-.628-.023-.637-.274.305-.363.192-.275.488-.576.309-.081.437.019.687-.003-.418-.428.665-.415.589-.83-.102-.258-.16-.773-.708-.767.011-.354.412-.368.859-.348l.05-.288c.078.924-.078 1.904-.263 2.874 1.772-2.172 3.342-4.641-.655-6.182 2.105-.229 3.036-2.277 2.521-2.313a8.047 8.047 0 0 1-.983-1.275c-1.685-2.728-.994-5.755-.21-8.89.394-1.734.798-6.48 1.379-8.291.072-.263.137-.525.192-.79l-.361.883c-.586-1.092-1.155-2.076-1.536-3.031-.3.176-.592.213-1.001.623l.191-.495c-.887-.428-.864-1.455-1.251-1.931.463.092.541-.293.599-.633l-.299.142c.149-1.287-.272-2.762-.253-3.907-.009-.16.158-.287.312-.367l-.407-1.09c.619.057.495-.941.906-.432-.767-.791-.364-1.653-1.154-2.397a29.192 29.192 0 0 0-.745-4.296 24.98 24.98 0 0 0-1.568-4.28l-.22.097c-.51-.972-1.858-1.694-1.62-2.963-.466-.375-.848-.851-1.277-1.249-.448-.394-.944-.707-1.605-.763-.353-.935-1.057-1.198-1.555-2.061-.573.371-.924-.748-1.313-.182-.756.788-.011.667-.619 1.319l.206-.056a43.247 43.247 0 0 0-.695 7.506c.707 1.596.453 3.436.72 5.178.382 1.855.879 3.9 1.489 5.515.2.384-.314.687-.597 1.033.331 1.506.19 3.435.576 5.145a.304.304 0 0 1 .02-.085c.124.912-.513 1.611-.386 2.5.18-.008.195.13.29.196-.826.158 1.831 5.249 1.352 5.575.041.093.078.189.101.288-.358 1.907-1.98 3.886-1.816 5.523.4.352.752.75 1.203 1.045-.359.294.342.342.249.692-1.68.905-.967 1.418-.375.953.236.727.092 1.46.162 2.112.128.3.262.598.412.901.145.256-.103.404-.501.541.25.658-.17.469-.33 1.167-.588.179.964 1.723.794 1.925l-.09-.112c-.084.807-1.212 1.37-1.243 2.162-.393 2.201.16 4.613.036 6.668.616-.01-.157-.446.66-.508-.051 1.212-.734 2.486-.767 3.725-.153.233-.447.526-.637.641-.206.411.308.212.247.507l-.554.08c.493.394-.564.673-.299 1.061.226.004.268.149.263.294-.589.056.079.439-.462.463h.045c-.002.088.041.146-.051.261.105.072.552.42 1.021.78-.065.108-.09.278-.039.486-.894-.244-1.605-.818-2.328-1.16a23.279 23.279 0 0 0-1.163-.2c-.345-.033-.376-.338-.318-.765-.824-.191-.411-.436-1.067-1.003.111-.616-2.323-.235-2.449-.51l.165-.007c-.811-.576-.83-1.895-1.661-2.415-2.164-1.701-5.034-2.741-7.266-4.072-.298.542.574.131.234.877-1.312-.771-2.365-2.144-3.764-2.881-.189-.268-.379-.696-.418-.929-.374-.413-.394.151-.703-.069l.176-.532c-.682.206-.489-.888-1.06-.875-.112.197-.299.153-.463.068.216-.551-.543-.176-.315-.667l-.022.039c-.1-.051-.188-.045-.277-.191-.276.098-2.717.921-2.987 1.087l-.058-.129c-.285-.081-.55.292-.425.449l-.329-.15.053-.025-.328-.15c-.045-.071-.027-.356.156-.569-.261.127-.514.158-.673-.009.42.535.915 1.251 1.256 2.01-.292.108-.595-.328-.862-.354-.165-.468-.657-1.006-1.059-1.41-.117-.002-.393.603-.542.251.022-.472-.275-.07-.375-.448.302-.159.495.017.72.114.126-.525-.457-.529-.597-.733-.137.134-.537-.179-.87-.115.179-.301.063-.373-.065-.476l-.044.027.042-.028a.44.44 0 0 1-.168-.223c-.179-.116-.361.048-.332.246a.333.333 0 0 0-.002.279c-.593.336-1.26.675-1.146.719.053.076.019.17-.028.263a.224.224 0 0 0-.035.076c-.066.121-.131.237-.053.315l.108-.108c.773.376-1.513 2.765-.63 3.194-.219-.76.316-.624.758-.578-.022.231.071.605.319.857.273.024.223-.191.321-.34.101.185.334.395.195.72.323-.338.237.357.518.294.269-.118.041-.178.252-.323.303.143.727.338.948.506-.009.347.088 1.001-.288 1.413-.441-.229.448-.729-.074-.794-.032.786-.497.049-.765.568.049.371.358.476.646.48l-.02-.113c.259-.014.772-.002.883.465-.147.229-.107.454-.295.458l.294.156c.068-.065.138-.132.069-.22.218-.143.325.021.383.211-.073.274 2.074-.482 1.964-.324.107.039.141.151.181.24-.633-.028-2.148.146-1.888.174.072.339 3.045-.319 2.989.242.173.05.394.082.466-.197.225.247-.295.464-.201.795.022-.039.04-.138.098-.102l.048.412c.605-.221 1.002.573 1.685.248-.256.222-.624.649-1.022.775l.011-.159c-.076.062-.351.051-.458.314.195.288.444.345.843.219.021.094.05.191.059.282l.041-.103c.02.203-.002.225-.082.311a.306.306 0 0 1-.046.05c-.179.833 1.273-.005 1.579.625.194-.038.074-.122.322-.18.358.533.588.927 1.018 1.358.324-.24.401-.362.366-.797l.34.299c-.78.681.32 1.176-.498 1.836.015.25.224.409.51.381.131-.204.339-.531.612-.39.233.478.196.328.368.762-.07.315-.241.366-.343.595.665-.109.104.822.582 1.005.325.067.9.327 1.172-.148.37.228.18.582-.068.954l.28.221c-1.019-.503-1.976-1.227-2.912-1.953 1.412 2.811 3.197 5.673 6.895 3.196-.84 1.947.877 4.04 1.182 3.616a10.04 10.04 0 0 1 1.873-.048c3.795.265 6.689 2.724 9.646 5.335.29.246.678.548 1.127.888.133.097.181.146.396.289l.697.46 1.5.983 6.596 4.321c1.678-1.247 3.182-2.328 4.24-3.004.504-.336 1.01-.682 1.524-1.049l-1.751 1.02 2.374-3.14 1.038-1.376.491-.829c-.355-.093-.574-.291-1.219-.284l.584-.241c-.163-1.019.812-1.815 1.016-2.483.206.43.617.193.973-.024l-.322-.122c1.303-.88 2.426-2.35 3.515-3.222.146-.128.369-.094.539-.032l.776-1.145c.326.532 1.192-.319.963.39.279-1.205 1.337-1.535 1.564-2.729 2.514-2.306 4.946-5.04 6.932-8.128l-.215-.116c.665-1.117.691-2.745 2.087-3.427.271-1.321 1.137-2.648.618-3.894.818-.946.767-1.755 1.464-2.801zm-68.302 3.268c-.015.14-.049.272-.106.342-.107-.043-.041-.174.106-.342zm.944-.847l.104-.086c-.049-.224-.395-.251-.589-.283-.058.201-.008.253-.033.342a.796.796 0 0 1-.281.132 1.23 1.23 0 0 0-.085.01l-.038-.054c-.071.032-.139.04-.203.049-.041-.023-.07-.07-.081-.155.064-.069.143.008.206.035-.147-.059.372-.415.885-.755.115.218.44.326.335.581a1.67 1.67 0 0 0 .076-.069l.087.148a.682.682 0 0 1-.383.105zm32.768 14.989c.213.163-.051.518.025.721a6.733 6.733 0 0 0-.866.219c.243-.32.514-.644.841-.94zm-1.446.27l-.09.087c.038.226.483.279.578.135l-.001.286-.045-.028.001.234-.006.002c-.132-.491-.537.085-.863-.211a3.815 3.815 0 0 0-.153-.913c.272.203.499.367.579.408z" fill="#999998"/></g><metadata xmlns:d="https://loading.io/stock/">
<d:name>down</d:name>
<d:tags>bottom,below,sketch,handwrite,draw,down,arrow</d:tags>
<d:license>by</d:license>
<d:slug>703smc</d:slug>
</metadata></svg>