<?xml version="1.0"?><svg version="1.1" id="Layer_1" xmlns="http://www.w3.org/2000/svg" x="0" y="0" viewBox="0 0 100 100" xml:space="preserve"><g id="XMLID_1989_"><path id="XMLID_2052_" d="M54.438 80.89c-.037.079-.067.143-.055.122l.055-.122z" fill="#999998"/><path id="XMLID_2051_" d="M54.438 80.89c.042-.091.094-.203.11-.241l-.11.241z" fill="#999998"/><path id="XMLID_2050_" d="M55.03 79.725c.105-.194.188-.323.179-.225.191-.18.221-.337.088-.473-.064.247-.16.475-.267.698z" fill="#999998"/><path id="XMLID_2049_" d="M55.03 79.725c-.166.307-.389.78-.4.801.128-.274.272-.534.4-.801z" fill="#999998"/><path id="XMLID_2048_" d="M45.571 61.01c.055.023.102.036.152.053-.055-.06-.112-.096-.152-.053z" fill="#999998"/><path id="XMLID_2047_" d="M64.082 62.612l-.451-.189c-.125.199.212.147.451.189z" fill="#999998"/><path id="XMLID_2046_" d="M56.65 76.324c-.035.082 0 0 0 0z" fill="#999998"/><path id="XMLID_2045_" d="M56.65 76.324c-.198.469-.026.094 0 0z" fill="#999998"/><path id="XMLID_2044_" d="M69.874 63.945l-.262.197c1.383.069.019-.044.262-.197z" fill="#999998"/><path id="XMLID_2043_" d="M63.182 69.11c-.09.264-.009.423.242.478.052-.041.015-.047-.011-.039a.715.715 0 0 0-.231-.439z" fill="#999998"/><path id="XMLID_2042_" d="M69.091 61.918c.114-.079.197-.15.231-.19-.106.067-.178.13-.231.19z" fill="#999998"/><path id="XMLID_2041_" d="M48.386 13.558c.012.003.019-.004.029-.003-.015-.029-.027-.037-.029.003z" fill="#999998"/><path id="XMLID_2040_" d="M40.836 59.963l.02.012c.132-.047.06-.043-.02-.012z" fill="#999998"/><path id="XMLID_2039_" d="M30.971 62.989a.227.227 0 0 0-.232.062.36.36 0 0 0 .232-.062z" fill="#999998"/><path id="XMLID_2038_" d="M37.369 60.671l-.315-.103c.133.062.231.088.315.103z" fill="#999998"/><path id="XMLID_2037_" d="M35.302 68.692c.066-.106.025-.198-.124-.276a.504.504 0 0 1 .01.07c.01.081.041.152.114.206z" fill="#999998"/><path id="XMLID_2036_" d="M35.188 68.486c-.003-.024-.013-.044-.01-.07-.002.113.013.121.01.07z" fill="#999998"/><path id="XMLID_2035_" d="M37.485 72.22c.084-.152-.022-.349 0 0z" fill="#999998"/><path id="XMLID_2034_" d="M47.314 27.114c.144-.097.295-.156.444-.202-.343.065-.394-.596-.444.202z" fill="#999998"/><path id="XMLID_2033_" d="M56.716 76.364c.028-.024-.115-.294 0 0z" fill="#999998"/><path id="XMLID_2032_" d="M39.049 67.064a3.164 3.164 0 0 0-.321-.657l.321.657z" fill="#999998"/><path id="XMLID_2031_" d="M46.794 59.368l-.06-.165c-.012.063.002.121.06.165z" fill="#999998"/><path id="XMLID_2030_" d="M40.299 69.406a98.41 98.41 0 0 1-.062-.538c-.253.402-.232.581.062.538z" fill="#999998"/><path id="XMLID_2029_" d="M39.018 59.884c.06.004.104.02.152.033a.675.675 0 0 0-.152-.033z" fill="#999998"/><path id="XMLID_2028_" d="M51.408 36.729c-.004-.024.007-.04-.004-.067-.036-.022-.014.037.004.067z" fill="#999998"/><path id="XMLID_2027_" d="M61.93 70.573c.016-.047.004-.097.012-.144-.03.064-.041.117-.012.144z" fill="#999998"/><path id="XMLID_2026_" d="M61.038 71.207a.47.47 0 0 1 .265.034c-.084-.09-.172-.092-.265-.034z" fill="#999998"/><path id="XMLID_2025_" d="M61.038 71.207h-.001c-.014.006-.03.019-.04.017.014-.012.027-.008.041-.017z" fill="#999998"/><path id="XMLID_2024_" d="M64.862 65.269c.009-.004.024-.015.035-.02.016-.016.031-.029.05-.054-.071.003-.099.028-.085.074z" fill="#999998"/><path id="XMLID_2023_" d="M41.099 60.21a.734.734 0 0 0 .19-.041.432.432 0 0 0-.19.041z" fill="#999998"/><path id="XMLID_2022_" d="M41.822 71.719a.669.669 0 0 0 .155.098.96.96 0 0 0-.155-.098z" fill="#999998"/><path id="XMLID_2021_" d="M38.54 64.274c-.122.026-.145-.054-.111-.187-.094.144-.062.21.111.187z" fill="#999998"/><path id="XMLID_2020_" d="M38.461 64.036l-.017.011c-.004.012-.012.028-.015.04.012-.018.017-.032.032-.051z" fill="#999998"/><path id="XMLID_2013_" d="M44.379 85.529c.68.178 1.233.674 1.495 1.325-.741.238-.385 2.575.085 4.156-.02.222-.024.444-.002.668l.212-.038c.16.431.318.739.436.805.419.234 1.964-.351 2.442-.436 1.135-.203 1.586-.067 1.608-1.171l.175-.031c-.137-.262-.299-.567-.431-.883.089-.026.173-.088.242-.227-.12.128-.217.134-.304.087-.138-.372-.214-.761-.12-1.127l-.156.105a.774.774 0 0 1 .048-.056c.472-.47.215.193.603.147.089-.728.48-.324.786-.846-.458-.025-.595-.269-.413-.732-.131.234-.384.401-.527.628-.481-.918.856-1.138.378-2.066l.349.357c-.301-.859.059-2.095-.861-2.682.185-.169.357-.161.518.024.086-.769-1.082-4.116-.078-4.003-.075-.254-.5-.462-.23-.766.105.069.202.065.291-.012-.166-.244-.462-.706-.308-1.02l.305.293c.227-.801-.123-1.258-.4-1.957a2.816 2.816 0 0 1-.402-.903c-.224-.349-.086-.509.415-.48.462-1.2.962-1.262.718-2.659-.118-.671-.519-1.305-.605-1.97-.179-1.388.088-.566.223-1.696.138-1.146.079-2.485.471-3.581-.135.195-.484-.122-.698-.463.44-.2 1.127.049 1.441-.445a.81.81 0 0 0-.11.573l.253-.455c.183.115.254.757.526.475.252-.261-.331-.758.42-.425a.726.726 0 0 1-.199.171c.822.203 1.94-.364 2.694.025.325.167-.62.455-.488.738 1.273-.086 2.528-.774 3.823-.577-.452-.952.808.312 1.29-.04a.54.54 0 0 0-.16.431c.947.187 1.765-.28 2.632-.533l-.204.25c.501.516 1.368.138 1.705-.339-.198.982 1.576.194 1.996.096-.107.004-1.035.807-1.37.985-.18.179-.225-.113-.362.398.176-.062 1.264-.68 1.377-.446.087.179-2.361.94-.964.579-.186.008-.316.08-.39.218.163.054.375-.066.533.02.041.022-.551.436-.557.445-.539.701-.125.255-.598.191-.249.301.178.89-.446.979.197-.775-.28-.524-.744-.161l-.204.14c.051-.028.088-.054.131-.082-.14.114-.277.233-.389.333l.219-.096c.261.948-.687 1.258-.765 2.126.207-1.768-1.945 1.047-1.902 1.054a.662.662 0 0 1 .329-.099c-.209.817-1.133 1.485-1.512 2.225-.147.286-.807 1.692-.964 2.185.013-.06.017-.123.04-.181-.271.3-.658.933-.826 1.139-.095.117-.571 1.404-.324.331-.166.421-.34.839-.522 1.254a.667.667 0 0 1 .092-.458c-.162.372-.552.966-.588 1.391.045-.108.26-.89.504-.903l-.143.295c.456-.265.732-1.307.968-1.716l.025.341c.058-.224.144-.443.211-.665.199-.113.243-.051.133.185.34-.31.541-.646.724-1.033.101.068.102.151.003.25.287-.267.824-1.12.948-1.248.37-.601-.157-1.408 1.008-1.169-.031-.189.418-1.773 1.097-1.863.194-.09.687-.974.928-1.073.017.101-.007.197-.024.295.35-.786 4.6-4.149 5.186-4.373-1.338-.155 1.434-1.436 1.366-1.407.298-.128.606.067 1.119-.506-.919-.03.625-.659.587-.631.561-.405 1.008-.34 1.524-1.022-.294.09-1.554.379-1.236-.324-1.191.572-2.288 1.399-3.596 1.696.549-.296 1.165-.674 1.778-.822.009-.002-.694.165-.67.116l1.268-.456c-.094-.197-1.03.37-1.22.344a7.399 7.399 0 0 1 1.286-.569c-.354-.07-.435-.255-.241-.557-.204.146-1.19.786-1.527.532-.147-.111.623-.446.375-.599-.575.267-.988.115-1.511.565-.143-.125-.134-.26.027-.406-.715.243-2.057.049-2.18.744-1.184.414-2.38-.041-3.574-.095-.233-.011-2.771.491-2.485-.229-.538.138-.69.269-1.257.017.463-.284-.111-.279.511-.222-.621-.164-.861-.402-1.468.013.257-.48-.537-.567-.77-.468l.436.345c-.316.041-.63.027-.941-.04.747-1.461-2.542.126-3.153-.717-.359.405.687.342.363.819-.47-.087-.719-.594-1.052-.865.147-.653-.087-1.355-.079-2.084.011-1.029.562-1.767-.056-2.65 1.017.214.686-1.933.628-2.558l.369.243c.05-.793-1.484-.712-1.512-1.459 1.313.067 1.3-2.773.789-3.621a.382.382 0 0 1 .367.243c.025-.491.534-2.082-.516-1.903.76-.005-.096-1.56-.215-1.809l.511.103c-.507-.417-.842-.621-.998-1.285.178-.18.271-.152.278.082.247-.515-.43-.579-.197-1.153l.324.265c.039-.489-1.279-1.845.102-2.088-.378-.116-.55-.37-.517-.763a.323.323 0 0 1 .335.149c.378-1.033-.509-1.461.243-2.274.002-.069-.146 1.282-.095 1.365.592.008.569-.626 1.209-.115-.348-.514-1.351-1.739-.665-2.036.234-.683.513-1.667-.036-2.033-.301-.2-.404.017-.431.323-.085-.22-.038.073-.008.138-.007.321.044.683.047.785-.603-.592-.158-.767-1.013-1.323 1.154-.676 1.588-1.345 1.342-2.554-.18-.887-1.21-1.647-.425-2.144.038.162.109.308.211.438-.205-.507-.026-1.628-.763-1.777.167-.385.499-.092.53-.164.2-.486.436-.906.217-1.866-.301-1.319-1.293-2.093-.546-3.546-.332.751-.086-1.144-.086-1.196.001-.611-.08-1.222-.128-1.83-.122-1.553.04-3.147-.154-4.674-.131-1.029-.139-3.059-.617-4.277l-.071.172c-.193-1.64-.572-3.336-1.22-4.886-.004-.017-.012-.034-.015-.052l.003.017v-.001.001c.12.543.197 1.115.245 1.666l-.079-.605c.027.607.099 1.214.282 1.796.024-.048-.025 1.047-.055.866.206 1.082.18 2.211.213 3.255-.166-.284-.296.854-.315 1.024-.055.497-.091 1.75.071 2.45-.47-.607-.035 1.214-.031 1.113-.048 1.405.266.142-.611.506.737-.059.444 1.112.008 1.334 1.043.139-.304 1.617-.294 1.625a.787.787 0 0 1-.186-.348c-.102.661.39.296.713.472.07.818-.329.296-.709.643.054.404.861 3.509.484 3.595.591-.18 1.403.441.81.596a.339.339 0 0 0-.268-.294l.162.322c-.658.3-.121-.438-.614-.444.105.481.63 1.31.41 1.833-.582.085-.175-1.071-.718-.489.133-.223.155-.512.288-.736-.342.192-.738-.235-.936.058-.173.255-.154 1.46-.045 1.684.058.118.863.615.837.532.309.977-.586.747-.751 1.372-.227.858 1.232 1.08.796 1.815-.209-.124-.501-.122-.704-.255-.068.799.942.684.521 1.531-.015-.01-.342-.548-.31-.602-.557.622.395.421.388.948l-.626.094c.093 1.096.524 2.13.622 3.226-.894-.309-.519 1.848-.638 2.558-.135.809-.839 1.785.095 2.301-.08.158-.197.188-.349.088-.189.469.38.078.55.288-.058.311-.216.378-.475.2.27.567 1.095 3.778.203 3.438-.092.307.529 1.463.535 1.507.07.442-.085 2.1-.152 2.799-.059.616-.95 3.495.204 3.624-.238.407-.821.883-.909 1.364-.23 1.256.318.576.569 1.605l-.566.003c.23.146.368.441.586.604-.693.333-.54.135-.542.723a.447.447 0 0 1 .421-.318c.313.816-.623 1.154-.681 1.655-.021.178.048.416.135.658-.296-.017-.593-.034-.887-.135.143.116.174.244.09.382-1.258-.392-.262.256-.951.282-.543.021-.176-.081-.536-.256-.313-.152-.966-.385-.291-.922-.734.357-1.103-.327-1.721-.495l.392-.144c-.779.284-.607-.136-.428.503-.2-.015-.328-.112-.383-.292.031-.033-1.213 2.278-1.351.658.648.2.236-.402.556-.568-.339.024-.346-.324-.746-.354-.311-.024-.355.682-.908.623.079-.311-.019-.494-.276-.562.499.18-1.314.838-1.801.754l.528.175c-.272.274-.605.369-1.001.285-.11-.193.311-.201.194-.269-.361.452-2.557-.648-3.024-.814-.881-.314-2.46-1.359-3.583-1.028.5.268.936.301.729.852.514-.05 1.029-.092 1.545-.127-.18.179-.224.411-.38.598a9.65 9.65 0 0 1 1.226-.058c-.181.401.115.431.474.674-.876-.504-1.611-.098-2.537-.58-1.039-.541-1.889-1.74-3.263-1.28.728.793 1.733 1.589 2.168 2.602-.002-.107 0-.215.007-.322.65.4.807 1.012 1.329 1.512-.466-.193-.482-.118-.81.097.618.132 1.59 1.536 1.773 1.769.215.274.283.868.755 1.254.548.447 1.321.518 1.677 1.22-.625-.144-.563.411-1.217-.153.496.768 1.675 1.506 1.919 1.792.282-.173.458.392.673-.142-.467 1.341 1.604 3.984 2.227 5-.082.066-.143.056-.181-.029.094.772.844.1 1.113.533.317.511.066.757-.325.414-.701-.615.06 1.421.021 1.049.034.318.158.966.242 1.11.743 1.272 1.885 1.604 2.897 2.843-.409-.001-.422-.151-.735.145.129.165 2.132.184.517 1.245l-.303-.559c-.494.649.748.777.148 1.167.416.684 1.247.725 1.564 1.508.827-.296.135.475.714.712-.216.113-.368.352-.587.459.546.467 1.162.893 1.584 1.486-.669-.14-1.165-.708-1.715-1.061.142.331.527 1.132.974 1.169a.514.514 0 0 1-.327-.389zm7.025-48.867c.033.099.019.093.004.067.021.119-.015.206-.142.243-.023-.301-.261-.554.138-.31zm-3.643 1.115l.035.329c-.116.001-.127-.109-.035-.329zm.301 1.09c.221.081-.219.504-.274.575-.171-.472-.08-.664.274-.575zM46.581 64.29l.029-.003a.059.059 0 0 1 .002.014l-.031-.011zm-1.227 15.117c.226.05.476-.001.701.054-1.498-1.451-1.813-3.689-3.31-5.136a.462.462 0 0 1 .431.123c.134-.407-.532-1.462-1.034-1.194a.668.668 0 0 1 .317-.473.762.762 0 0 0-.46-.554c.006.022-.44-.625-.177-.508-.791-.634-2.133-3.527-2.851-3.228.781-.408-.188-1.485-.684-1.642.664-.001.096-1.669-.597-.982.389-.506-.946-.737.125-.678-.823-.323-1.523-1.007-2.143-1.614.024.098 1.704 1.129 1.887 1.221-.105-.07-1.438-.97-1.162-1.116.627-.33 1.092 1.187 2.045.366.123-.405.674-1.216.707-1.309-.427.888 1.014.597.384 1.678a.5.5 0 0 0 .358-.47c.254.133.261.304.022.511.548-.081.783-.533 1.351-.476-.068.163-.16.311-.275.445.427-.328.891-.624 1.457-.437.017.136-.042.215-.176.236 1.083.039 2.03-.766 3.126-.364-.29.539.315.907.808.875-.013 1.029.169 2.059.15 3.088.139-.335.85-.421.924.033l-.205.048c.051-.006.129.035.282.206-.075.469-.705.28-.877.035l.2.578a1.67 1.67 0 0 1-.499-.143c.413.27-.611.987.027 1.335-.235.355-.135.991-.096 1.557.061.448.098.898.111 1.351a.576.576 0 0 1 .531.417c.183.795-.253 1.273-.231 2.162.029 1.182.094.583.689 1.157-.251.022-.525.831-.771.477.055.965.196 1.859.44 2.795.106-.169.252-.244.44-.226.154.526-.364.4-.479.464.117.268.145.536.139.805-.259-.493-.334-.094-.848-.647-.372-.402-.886.205-.777-.82z" fill="#999998"/><path id="XMLID_2012_" d="M47.038 67.917l.037-.009c-.013.002-.027.001-.037.009z" fill="#999998"/><path id="XMLID_2011_" d="M47.797 38.105c-.018-.165-.005 0 0 0z" fill="#999998"/><path id="XMLID_2010_" d="M47.787 39.441c.154-.197.023-.162 0 0z" fill="#999998"/><path id="XMLID_2009_" d="M47.038 67.917l-.359.084c.274.183.28-.025.359-.084z" fill="#999998"/><path id="XMLID_2008_" d="M64.274 62.693c-.001.002.01.111 0 0z" fill="#999998"/><path id="XMLID_2007_" d="M46.559 57.876c.091-.071.132-.102 0 0z" fill="#999998"/><path id="XMLID_2006_" d="M64.219 65.962c.045-.011.123-.041.213-.08-.066.02-.139.046-.213.08z" fill="#999998"/><path id="XMLID_2005_" d="M61.275 69.188c.002.005.221.342 0 0z" fill="#999998"/><path id="XMLID_2004_" d="M38.354 64.274c-.064.094-.016.059.035-.02a.05.05 0 0 0-.035.02z" fill="#999998"/><path id="XMLID_2003_" d="M38.694 66.334c.002.007.076.182 0 0z" fill="#999998"/><path id="XMLID_2002_" d="M55.587 78.386l.053-.112a7.187 7.187 0 0 0-.053.112z" fill="#999998"/><path id="XMLID_2001_" d="M55.587 78.386c-.011.023-.009.02 0 0z" fill="#999998"/><path id="XMLID_2000_" d="M55.432 78.778l.105-.258c-.041.086-.094.192-.105.258z" fill="#999998"/><path id="XMLID_1999_" d="M57.695 74.553c-.2.274-.421.507-.513.804.174-.266.345-.534.513-.804z" fill="#999998"/><path id="XMLID_1998_" d="M57.695 74.553c-.139.191-.03.251 0 0z" fill="#999998"/><path id="XMLID_1997_" d="M60.527 72.605c.603-.39-.089-.237.399-.775-.212.155-.398.398-.583.584.255-.113.316-.049.184.191z" fill="#999998"/><path id="XMLID_1996_" d="M62.934 70.229c.1-.277.121-.348-.192-.185-.249.362.149.119.192.185z" fill="#999998"/><path id="XMLID_1995_" d="M58.089 61.775c-.34.061-.007.182-.053.469l.053-.469z" fill="#999998"/><path id="XMLID_1994_" d="M54.443 64.583l.324.303.173-.426c-.166.04-.331.081-.497.123z" fill="#999998"/><path id="XMLID_1993_" d="M52.49 61.158l-.421.084c.051-.014.849-.132.421-.084z" fill="#999998"/><path id="XMLID_1992_" d="M36.693 71.769l.447-.383c-.205-.145-.788.147-.447.383z" fill="#999998"/><path id="XMLID_1991_" d="M43.53 83.943c-.089-.286-.01-.651-.142-.757-.201.253-.213.668.142.757z" fill="#999998"/><path id="XMLID_1990_" d="M51.156 61.486l.19.272c-.116-.59-.22-.281-.19-.272z" fill="#999998"/></g><metadata xmlns:d="https://loading.io/stock/">
<d:name>down</d:name>
<d:tags>sketch,handwrite,draw,down,arrow</d:tags>
<d:license>by</d:license>
<d:slug>7wp2ow</d:slug>
</metadata></svg>