<?xml version="1.0"?><svg version="1.1" id="Layer_1" xmlns="http://www.w3.org/2000/svg" x="0" y="0" viewBox="0 0 100 100" xml:space="preserve"><path d="M33.32 92.5L17.148 76.332h11.053V42.631c2.506 3.75 6.036 6.643 10.241 8.314v25.387h11.055L33.32 92.5z" fill="#999998"/><path d="M61.558 36.095V7.5h10.241v37.095a23.95 23.95 0 0 0-10.241-8.5z" fill="gray"/><path d="M66.677 92.5L50.504 76.332h11.053V63.733c0-2.425.282-5.068-.147-7.472-.759-4.246-4.449-7.526-8.754-7.781-2.735-.162-5.49.18-8.216-.188a18.438 18.438 0 0 1-12.187-7.098c-2.74-3.613-4.025-8.074-4.053-12.576-.01-1.663 0-3.326 0-4.989V7.5h10.241v13.691c0 4.799-.933 10.938 2.759 14.68 2.528 2.563 5.841 2.351 9.141 2.351 4.354 0 8.461.643 12.215 3.026a19.993 19.993 0 0 1 8.591 11.672c.772 2.885.652 5.848.652 8.801v14.61h11.054L66.677 92.5z" fill="#323232"/><metadata xmlns:d="https://loading.io/stock/">
<d:name>down</d:name>
<d:tags>south,change,course,redirect,fork,branch,down,arrow</d:tags>
<d:license>by</d:license>
<d:slug>8j9xlx</d:slug>
</metadata></svg>