<?xml version="1.0"?><svg version="1.1" id="Layer_1" xmlns="http://www.w3.org/2000/svg" x="0" y="0" viewBox="0 0 100 100" xml:space="preserve"><path d="M61.647 48.767c.015-.134.027-.269.039-.404-.012.135-.024.27-.039.404z"/><path d="M61.315 50.776c.024-.111.053-.219.075-.331-.022.112-.051.22-.075.331z"/><path d="M60.088 54.523c.07-.158.142-.316.208-.476-.066.16-.138.317-.208.476z"/><path d="M60.838 52.569c.044-.137.082-.277.123-.415-.042.138-.08.278-.123.415z"/><path d="M60.296 54.046z" fill="#fff"/><path d="M59.527 55.686z" fill="#fff"/><path d="M61.686 48.363z" fill="#fff"/><path d="M60.96 52.154z" fill="#fff"/><path d="M61.391 50.445z" fill="#fff"/><path d="M63.905 56.04H92.5v10.241H55.405a23.95 23.95 0 0 0 8.5-10.241z" fill="gray"/><path d="M7.5 61.159l16.168-16.172V56.04h13.203c2.549 0 5.456.345 7.929-.401 4.084-1.233 6.695-5.026 6.736-9.222.029-2.986-.207-6.03.422-8.971a18.252 18.252 0 0 1 6.31-10.305c3.445-2.803 7.808-4.275 12.223-4.44 1.782-.067 3.574-.016 5.357-.016h16.65v10.241H78.416c-5.01 0-11.453-.953-14.962 3.509-2.096 2.666-1.68 6.096-1.68 9.27 0 4.289-.994 8.377-3.434 11.952-2.628 3.85-6.629 6.736-11.139 7.942-2.814.753-5.655.683-8.535.683h-15v11.054L7.5 61.159z" fill="#323232"/><metadata xmlns:d="https://loading.io/stock/">
<d:name>left</d:name>
<d:tags>merge,join,combine,branch,west,left,arrow</d:tags>
<d:license>by</d:license>
<d:slug>afmzwt</d:slug>
</metadata></svg>