<?xml version="1.0"?><svg version="1.1" id="Layer_1" xmlns="http://www.w3.org/2000/svg" x="0" y="0" viewBox="0 0 100 100" xml:space="preserve"><path id="XMLID_18_" fill="#323232" d="M54.026 68.86l4.026-2.119V92.5H41.948V66.741l4.026 2.119L50 66.741z"/><path id="XMLID_45_" d="M80.575 37.179L67.118 23.726 51.516 8.128a2.144 2.144 0 0 0-3.032 0L32.882 23.726 19.425 37.179c-1.351 1.351-.394 3.661 1.516 3.661h21.006v19.314l4.026 2.119L50 60.154l4.026 2.119 4.026-2.119V40.84h21.006c1.911 0 2.868-2.31 1.517-3.661z" fill="#323232"/><path id="XMLID_46_" d="M33.716 53.253l-2.867-1.655a1.61 1.61 0 1 0-1.61 2.789l2.867 1.655a1.611 1.611 0 0 0 1.61-2.789z" fill="#999998"/><path id="XMLID_47_" d="M27 62.103l3.261.575a1.61 1.61 0 0 0 1.865-1.306v-.001a1.61 1.61 0 0 0-1.306-1.866l-3.261-.575a1.61 1.61 0 0 0-1.865 1.306v.001A1.61 1.61 0 0 0 27 62.103z" fill="#999998"/><path id="XMLID_48_" d="M32.102 67.68v-.001a1.61 1.61 0 0 0-1.865-1.306l-3.261.575c-.876.155-1.46.99-1.306 1.866v.001a1.61 1.61 0 0 0 1.865 1.306l3.261-.575a1.61 1.61 0 0 0 1.306-1.866z" fill="#999998"/><path id="XMLID_49_" d="M32.037 73.025l-2.867 1.656a1.61 1.61 0 0 0 1.611 2.789l2.867-1.656a1.61 1.61 0 1 0-1.611-2.789z" fill="#999998"/><path id="XMLID_50_" d="M70.76 74.801l-2.866-1.655a1.61 1.61 0 0 0-1.611 2.789l2.866 1.655a1.61 1.61 0 0 0 1.611-2.789z" fill="#999998"/><path id="XMLID_51_" d="M73 67.084l-3.261-.575a1.61 1.61 0 0 0-1.865 1.306v.001a1.61 1.61 0 0 0 1.306 1.866l3.261.575a1.61 1.61 0 0 0 1.865-1.306v-.001A1.61 1.61 0 0 0 73 67.084z" fill="#999998"/><path id="XMLID_52_" d="M74.33 60.374a1.61 1.61 0 0 0-1.865-1.306l-3.261.575a1.61 1.61 0 0 0-1.306 1.866v.001a1.61 1.61 0 0 0 1.865 1.306l3.261-.575a1.61 1.61 0 0 0 1.306-1.866v-.001z" fill="#999998"/><path id="XMLID_53_" d="M67.963 56.163l2.867-1.655a1.61 1.61 0 1 0-1.61-2.789l-2.867 1.655a1.612 1.612 0 0 0-.59 2.2 1.612 1.612 0 0 0 2.2.589z" fill="#999998"/><metadata xmlns:d="https://loading.io/stock/">
<d:name>up</d:name>
<d:tags>north,upload,top,direction,way,break,fix,up,arrow</d:tags>
<d:license>by</d:license>
<d:slug>ay1wgm</d:slug>
</metadata></svg>