<?xml version="1.0"?><svg version="1.1" id="Layer_1" xmlns="http://www.w3.org/2000/svg" x="0" y="0" viewBox="0 0 100 100" xml:space="preserve"><path d="M42.021 55.145l-.258.006h-.136c5.648.316 6.733 2.728 8.879 7.498 2.533 5.63 6.362 14.138 20.737 14.138H92.5V66.485H71.244c-7.713 0-9.002-2.864-11.341-8.063-1.202-2.672-2.63-5.823-5.172-8.422-2.662 2.721-6.547 4.836-12.71 5.145z" fill="gray"/><path d="M50.507 37.351c-2.146 4.77-3.232 7.182-8.879 7.498H23.766v-11.12L7.5 49.999l16.266 16.274V55.152H41.764l.258-.006c6.163-.309 10.048-2.424 12.71-5.145 2.542-2.599 3.97-5.749 5.172-8.422 2.339-5.2 3.628-8.063 11.341-8.063H92.5V23.212H71.244c-14.375 0-18.203 8.508-20.737 14.139z" fill="#323232"/><metadata xmlns:d="https://loading.io/stock/">
<d:name>left</d:name>
<d:tags>join,combine,together,left,arrow</d:tags>
<d:license>by</d:license>
<d:slug>b1gh1r</d:slug>
</metadata></svg>