<?xml version="1.0"?><svg version="1.1" id="Layer_1" xmlns="http://www.w3.org/2000/svg" x="0" y="0" viewBox="0 0 100 100" xml:space="preserve"><path d="M33.321 92.5l16.176-16.168H38.442V63.905a23.95 23.95 0 0 1-10.241-8.5v20.927H17.149L33.321 92.5z" fill="gray"/><path d="M38.442 59.346a19.58 19.58 0 0 0 9.467 2.431h5.078c5.627 0 8.571 4.826 8.571 9.594v4.96H50.504L66.68 92.5l16.172-16.168H71.799v-4.96c0-11.308-8.088-19.835-18.812-19.835h-5.078c-5.22 0-9.467-4.247-9.467-9.467V7.5H28.201v34.569c0 7.438 4.144 13.922 10.241 17.277z" fill="#323232"/><metadata xmlns:d="https://loading.io/stock/">
<d:name>fork</d:name>
<d:tags>down,bottom,below,break,fork,arrow</d:tags>
<d:license>by</d:license>
<d:slug>bdr1l9</d:slug>
</metadata></svg>