<?xml version="1.0"?><svg version="1.1" id="Layer_1" xmlns="http://www.w3.org/2000/svg" x="0" y="0" viewBox="0 0 100 100" xml:space="preserve"><path id="XMLID_2397_" d="M14.232 11.505c1.437 9.558 2.07 20.952 1.026 30.378-.142 1.282 1.478 1.958 2.301.965l5.984-7.214c4.896 6.109 10.177 10.814 15.904 14.125-7.207 3.901-12.423 9.335-16.337 14.465l-6.071-7.101c-.838-.98-2.448-.281-2.287.999 1.184 9.41.721 20.813-.571 30.392-.158 1.172 1.181 1.931 2.106 1.195 7.561-6.02 17.115-12.262 25.801-16.068 1.181-.518.957-2.258-.314-2.475l-8.347-1.426c7.981-9.735 16.892-13.975 28.935-13.975H85.83V44.264H62.363c-11.101 0-20.297-4.568-28.585-14.277l8.305-1.547c1.268-.236 1.466-1.98.277-2.48-8.742-3.676-18.389-9.775-26.041-15.681-.935-.723-2.263.057-2.087 1.226z" fill="#323232"/><metadata xmlns:d="https://loading.io/stock/">
<d:name>fork</d:name>
<d:tags>diverse,diverge,separate,break,fork,arrow</d:tags>
<d:license>by</d:license>
<d:slug>c0ahpb</d:slug>
</metadata></svg>