<?xml version="1.0"?><svg version="1.1" id="Layer_1" xmlns="http://www.w3.org/2000/svg" x="0" y="0" viewBox="0 0 100 100" xml:space="preserve"><path d="M7.5 33.321l16.168 16.176V38.442h12.427a23.95 23.95 0 0 1 8.5-10.241H23.668V17.148L7.5 33.321z" fill="gray"/><path d="M40.654 38.442a19.58 19.58 0 0 0-2.431 9.467v5.078c0 5.627-4.826 8.571-9.594 8.571h-4.96V50.503L7.5 66.679l16.168 16.172V71.799h4.96c11.308 0 19.835-8.088 19.835-18.812v-5.078c0-5.22 4.247-9.467 9.467-9.467H92.5V28.201H57.931c-7.438 0-13.922 4.143-17.277 10.241z" fill="#323232"/><metadata xmlns:d="https://loading.io/stock/">
<d:name>fork</d:name>
<d:tags>separate,break,copy,duplicate,left,fork,arrow</d:tags>
<d:license>by</d:license>
<d:slug>ccnkd2</d:slug>
</metadata></svg>