<?xml version="1.0"?><svg version="1.1" id="Layer_1" xmlns="http://www.w3.org/2000/svg" x="0" y="0" viewBox="0 0 100 100" xml:space="preserve"><path fill="#999998" d="M50.027 37.652v5.667h-36.86v13.362h36.86V82.119L85.059 50 50.027 17.881z"/><path d="M47.659 8.021c-1.262-1.157-3.298-.262-3.298 1.451v28.18H10.254A2.754 2.754 0 0 0 7.5 40.406v19.188a2.754 2.754 0 0 0 2.754 2.754h34.107v28.18c0 1.713 2.036 2.608 3.298 1.451l44.203-40.528c.425-.39.638-.921.638-1.451s-.213-1.061-.638-1.451L47.659 8.021zm2.368 74.098V56.681h-36.86V43.319h36.861V17.881L85.059 50 50.027 82.119z" fill="#323232"/><metadata xmlns:d="https://loading.io/stock/">
<d:name>right</d:name>
<d:tags>east,foward,redo,next,direction,way,turn,right,arrow</d:tags>
<d:license>by</d:license>
<d:slug>cu1332</d:slug>
</metadata></svg>