<?xml version="1.0"?><svg version="1.1" id="Layer_1" xmlns="http://www.w3.org/2000/svg" x="0" y="0" viewBox="0 0 100 100" xml:space="preserve"><path d="M66.679 7.5L50.503 23.668h11.055v12.427a23.95 23.95 0 0 1 10.241 8.5V23.668h11.053L66.679 7.5z" fill="gray"/><path d="M61.558 40.654a19.58 19.58 0 0 0-9.467-2.431h-5.078c-5.627 0-8.571-4.826-8.571-9.594v-4.96h11.055L33.321 7.5 17.148 23.668h11.053v4.96c0 11.308 8.088 19.835 18.812 19.835h5.078c5.22 0 9.467 4.247 9.467 9.467V92.5h10.241V57.931c0-7.438-4.143-13.922-10.241-17.277z" fill="#323232"/><metadata xmlns:d="https://loading.io/stock/">
<d:name>fork</d:name>
<d:tags>separate,break,copy,duplicate,up,fork,arrow</d:tags>
<d:license>by</d:license>
<d:slug>cyy8mc</d:slug>
</metadata></svg>