<?xml version="1.0"?><svg version="1.1" id="Layer_1" xmlns="http://www.w3.org/2000/svg" x="0" y="0" viewBox="0 0 100 100" xml:space="preserve"><g id="XMLID_1074_"><path id="XMLID_1088_" d="M35.54 13.737c-.051-.006-.111-.084-.177-.202.103.208.174.316.177.202z" fill="#999998"/><path id="XMLID_1091_" d="M35.363 13.535a8.82 8.82 0 0 1-.088-.184l-.003.002c.031.069.062.128.091.182z" fill="#999998"/><path id="XMLID_1092_" d="M34.268 12.904c.046.056.087.09.128.117a5.385 5.385 0 0 1-.074-.125c-.02 0-.033.013-.054.008z" fill="#999998"/><path id="XMLID_1095_" d="M92.363 38.711c-.748-.859-.744-.094-1.377-.786l.03.215c-2.82-.815-5.62-1.217-8.441-1.365-1.841.645-3.895.308-5.831.577-2.081.344-4.324.884-6.091 1.514-.419.207-.757-.313-1.14-.594-1.636.377-3.751.272-5.595.724.035 0 .07.01.092.017-.984.16-1.762-.459-2.723-.297.015.182-.134.202-.202.301-.215-.841-5.594 2.078-5.962 1.608-.098.046-.2.087-.305.115-2.062-.272-4.265-1.817-6.008-1.573-.358.421-.767.796-1.062 1.265-.33-.349-.35.362-.729.284-1.043-1.657-1.558-.912-1.035-.334-.767.272-1.558.163-2.247.259-.314.142-.626.29-.942.455-.267.158-.435-.087-.596-.484-.691.28-.507-.152-1.255-.286-.212-.587-1.799 1.049-2.018.879l.116-.094c-.86-.059-1.491-1.183-2.328-1.189-2.343-.313-4.851.266-7.011.176.013.626.466-.164.537.662-1.273-.04-2.594-.748-3.878-.784-.24-.155-.539-.455-.656-.648-.421-.211-.225.311-.528.247l-.072-.562c-.411.486-.674-.592-1.073-.336-.009.229-.158.267-.305.257-.041-.598-.448.066-.457-.482l-.002.045c-.089-.005-.149.037-.263-.06-.182.222-1.575 1.939-1.849 2.214l-.107-.092c-.315.042-.407.496-.219.589l-.398.003.042-.046-.418.012c-.084-.043-.212-.308-.12-.585-.06.065-.125.121-.193.171.048-.324.095-.647.131-.981.022-.365.333-.42.771-.391.167-.879.431-.463.989-1.194.632.071.159-2.45.435-2.597l.013.171c.559-.887 1.903-.992 2.404-1.882 1.656-2.341 2.64-5.309 3.994-7.567-.549-.302-.134.58-.89.238.788-1.337 2.18-2.388 2.97-3.74.276-.177.712-.345.947-.372.432-.343-.136-.397.099-.688l.528.208c-.176-.685.909-.419.924-.974-.192-.125-.137-.303-.041-.455.541.259.208-.511.687-.244l-.038-.025c.057-.092.056-.178.207-.25-.098-.277-.713-2.727-.848-3.026l.132-.043c.112-.265-.232-.573-.403-.471l.188-.302.019.055.187-.3c.076-.035.359.024.55.231-.098-.272-.1-.523.085-.653-.579.331-1.354.714-2.155.963-.078-.305.399-.548.456-.808.492-.099 1.076-.517 1.541-.837.018-.112-.548-.477-.174-.566.467.099.109-.256.499-.29.116.32-.086.476-.214.679.506.206.589-.354.811-.454-.114-.156.25-.488.243-.814.27.226.36.131.481.03l-.049-.113.051.111a.428.428 0 0 1 .247-.116c.143-.146.01-.352-.19-.363a.347.347 0 0 0-.275-.057c-.234-.633-.457-1.343-.517-1.247-.085.037-.17-.017-.255-.081a.248.248 0 0 0-.068-.049c-.108-.089-.211-.177-.302-.116l.087.127c-.511.696-2.454-2.057-3.049-1.249.798-.081.558.439.428.876a1.18 1.18 0 0 0-.92.175c-.077.274.149.258.279.383-.206.071-.452.279-.755.085.283.385-.398.191-.384.491.073.294.172.068.283.306-.194.29-.465.697-.661.907-.347-.054-1.023-.028-1.382-.471.298-.438.668.556.811.018-.79-.131.028-.526-.446-.873-.387.002-.547.316-.592.622l.117-.008c-.026.277-.115.814-.607.883-.21-.179-.446-.159-.42-.359l-.203.295c.056.079.113.159.214.094.111.244-.068.343-.268.388-.271-.092.22 2.236.087 2.105-.051.112-.17.139-.265.176.099-.667.107-2.285.053-2.015-.377.058-.031 3.248-.584 3.151-.066.18-.115.413.163.502-.269.227-.449-.332-.793-.246.038.025.137.048.095.108l-.425.035c.177.648-.671 1.046-.376 1.78-.212-.275-.624-.674-.727-1.103l.162.015c-.058-.082-.023-.376-.284-.497-.315.202-.39.471-.287.899-.097.021-.199.052-.292.06l.103.046c-.209.019-.23-.004-.313-.091a.287.287 0 0 1-.048-.05c-.844-.196-.083 1.366-.736 1.695.03.208.121.079.17.343-.566.387-.981.641-1.435 1.114.236.341.359.42.806.373l-.317.37c-.675-.816-1.22.378-1.874-.477-.26.025-.427.258-.405.565.206.133.538.344.388.642-.496.271-.341.224-.791.429-.323-.06-.373-.242-.607-.34.099.711-.847.155-1.042.682-.072.355-.347.99.143 1.253-.233.411-.597.229-.98-.014l-.227.315c.515-1.128 1.272-2.207 2.047-3.255-2.936 1.658-5.903 3.866-3.269 7.591-2.018-.743-4.115 1.24-3.669 1.524.099.678.132 1.331.11 1.965-.054 1.528-.44 2.943-1.039 4.291l-.234.503-.398.789a28.77 28.77 0 0 0-.82 1.695c-.505 1.152-.884 2.379-.999 3.676-.139 1.602.123 3.229.679 4.844.165.474.41 1.04.697 1.686.09.192.104.247.146.353l.115.298.248.633 1.139 2.851c.789 1.98 1.559 3.979 1.839 5.15.091.334.188.664.296.993l-.199-1.176c1.176.979 2.276 1.848 3.189 2.77.166-.339.409-.513.534-1.172l.122.656c1.056.089 1.655 1.283 2.282 1.658-.474.102-.32.581-.174.998l.189-.298c.616 1.549 1.861 3.062 2.513 4.392.099.181.018.4-.078.558l.99 1.079c-.6.2.077 1.296-.588.885 1.152.586 1.267 1.748 2.418 2.278 1.799 3.142 4.043 6.306 6.735 9.105l.16-.19c.985.957 2.613 1.391 3.01 2.986 1.27.607 2.423 1.822 3.78 1.605.779 1.07 1.602 1.221 2.508 2.194.408-.597 1.277.732 1.414-.062.385-1.178-.31-.856-.015-1.838l-.18.121c-.755-3.434-1.876-6.675-3.239-9.833-1.565-1.754-2.349-4.148-3.623-6.163-1.418-2.143-3.101-4.381-4.614-6.06-.411-.374-.117-.961-.064-1.497-1.213-1.64-2.24-4.005-3.63-5.843a.465.465 0 0 1 .033.109c-.668-1.014-.518-2.125-1.175-3.113-.158.092-.255-.064-.381-.097.652-.585-4.863-5.28-4.631-5.879a2.692 2.692 0 0 1-.267-.287 11.67 11.67 0 0 1-.471-1.88l-.155-.98-.032-.22c.038.004.074-.003.104-.04.143-.248-.067-.173.02-.412.319-.054.788-.083 1.04-.038.155.314.491.865.375 1.406-.419-.008.038-.863-.388-.682.319.718-.355.278-.294.866.206.305.44.258.647.133l-.059-.093c.171-.133.569-.335.82.056-.028.271.08.465-.056.543l.271.029c.028-.087.058-.177-.025-.232.115-.217.255-.108.366.044.048.282 1.491-1.276 1.453-1.096.101-.01.171.082.237.148-.508.231-1.665 1.012-1.451.928.197.301 2.311-1.547 2.472-1.016.155-.029.34-.1.288-.385.272.125-.049.553.154.813.002-.045-.023-.143.037-.136l.201.354c.385-.469 1.019.08 1.415-.534-.107.318-.218.872-.479 1.17l-.057-.149c-.034.09-.256.202-.234.489.273.177.495.113.755-.185.055.075.119.149.163.227l-.01-.112c.1.174.092.203.066.318a.314.314 0 0 1-.015.066c.211.833 1.001-.589 1.504-.178.135-.127.005-.144.172-.315.508.307.86.547 1.383.714.144-.372.148-.517-.07-.885l.393.098c-.298.986.774.883.439 1.869.125.215.36.248.568.08.008-.245.021-.637.293-.65.397.302.3.19.632.484.092.312-.016.443.011.695.462-.432.461.665.915.58.281-.109.844-.177.827-.732.387.004.41.41.396.863l.317.045c-1.012.097-2.089-.042-3.152-.211 2.391 1.763 5.183 3.286 6.728-.821.31 2.124 2.584 2.996 2.6 2.468a8.734 8.734 0 0 1 1.345-1.049c2.89-1.815 6.169-1.266 9.566-.621 1.882.311 6.957.505 8.896 1.021.281.063.559.12.841.166l-.946-.333c1.13-.632 2.152-1.243 3.151-1.664-.197-.297-.244-.591-.694-.991l.531.176c.425-.911 1.52-.931 2.012-1.332-.085.471.325.541.686.591l-.158-.299c1.366.12 2.918-.342 4.132-.35.169-.01.305.157.39.313l1.141-.421c-.055.627.993.495.461.914.828-.782 1.735-.379 2.522-1.184 2.957-.251 6.081-.894 9.085-2.097l-.088-.227c1.049-.47 1.926-1.745 3.251-1.409.884-.879 2.183-1.387 2.481-2.702 1.064-.235 1.456-.909 2.49-1.302-.302-.631.985-.835.439-1.304zm-57.86-27.089c.057.076-.033.137-.07.193.079-.124.347.444.599 1.002-.236.066-.398.36-.637.204.023.038.042.067.058.09l-.159.055a.649.649 0 0 1-.041-.387l.068.117c.231-.004.315-.331.379-.511-.189-.096-.249-.057-.333-.1a.797.797 0 0 1-.083-.299c.003-.028.003-.055.004-.083l.061-.027a.677.677 0 0 1-.013-.207c.03-.035.081-.054.167-.047zm-.929.076c-.135-.043-.259-.101-.318-.17.06-.092.178-.004.318.17zM20.45 42.148c-.227-.218-.621-.385-1.068-.507.104-.202.201-.402.287-.6.656.249 1.272.625 1.738 1.078-.207.216-.677-.067-.957.029z" fill="#999998"/></g><metadata xmlns:d="https://loading.io/stock/">
<d:name>left</d:name>
<d:tags>west,back,undo,backward,turn,draw,sketch,handwriting,left,arrow</d:tags>
<d:license>by</d:license>
<d:slug>dc0n4f</d:slug>
</metadata></svg>