<?xml version="1.0"?><svg version="1.1" id="Layer_1" xmlns="http://www.w3.org/2000/svg" x="0" y="0" viewBox="0 0 100 100" xml:space="preserve"><path d="M50 13.401c-20.179 0-36.596 16.417-36.596 36.596 0 20.179 16.417 36.596 36.596 36.596s36.596-16.417 36.596-36.596c0-20.179-16.417-36.596-36.596-36.596zm25.429 40.134H57.747v21.4c0 .954-.774 1.728-1.728 1.728H43.98a1.728 1.728 0 0 1-1.728-1.728v-21.4H24.57c-1.075 0-1.636-1.277-.91-2.07L49.089 23.73c.245-.267.577-.4.91-.4.333 0 .666.133.91.4l25.429 27.735c.727.792.166 2.07-.909 2.07z" fill="#cccccb"/><path fill="#cccccb" d="M29.846 49.979h15.961v23.129h8.385V49.979h15.961L50 27.999z"/><path d="M50 23.33c-.333 0-.666.133-.91.4L23.66 51.465c-.726.792-.164 2.07.91 2.07h17.682v21.4c0 .954.774 1.728 1.728 1.728h12.039c.954 0 1.728-.774 1.728-1.728v-21.4h17.682c1.075 0 1.636-1.277.91-2.07L50.91 23.73a1.23 1.23 0 0 0-.91-.4zm7.747 26.649h-3.556v23.129h-8.384V49.979H29.846L50 27.999 70.153 49.98H57.747z" fill="#323232"/><path d="M50 9.997c-22.056 0-40 17.944-40 40s17.944 40 40 40 40-17.944 40-40-17.944-40-40-40zm0 76.596c-20.179 0-36.596-16.417-36.596-36.596 0-20.179 16.417-36.596 36.596-36.596s36.596 16.417 36.596 36.596c0 20.179-16.417 36.596-36.596 36.596z" fill="#323232"/><metadata xmlns:d="https://loading.io/stock/">
<d:name>up</d:name>
<d:tags>north,upload,top,direction,way,circle,up,arrow</d:tags>
<d:license>by</d:license>
<d:slug>dxcj2t</d:slug>
</metadata></svg>