<?xml version="1.0"?><svg version="1.1" id="Layer_1" xmlns="http://www.w3.org/2000/svg" x="0" y="0" viewBox="0 0 100 100" xml:space="preserve"><path d="M50 15.773c-18.872 0-34.227 15.354-34.227 34.227S31.128 84.227 50 84.227 84.227 68.872 84.227 50 68.872 15.773 50 15.773zm20.157 37.796L53.563 36.975v39.691h-7.127V36.975L29.843 53.569l-5.039-5.039L50 23.333l25.196 25.196-5.039 5.04z" fill="#cccccb"/><path fill="#999998" d="M24.803 48.529l5.04 5.04 16.593-16.594v39.691h7.127V36.975l16.594 16.594 5.039-5.04L50 23.333z"/><path d="M50 10c-22.056 0-40 17.944-40 40s17.944 40 40 40 40-17.944 40-40-17.944-40-40-40zm0 74.227c-18.872 0-34.227-15.354-34.227-34.227S31.128 15.773 50 15.773 84.227 31.128 84.227 50 68.872 84.227 50 84.227z" fill="#323232"/><metadata xmlns:d="https://loading.io/stock/">
<d:name>up</d:name>
<d:tags>north,upload,top,direction,way,circle,up,arrow</d:tags>
<d:license>by</d:license>
<d:slug>eesz0p</d:slug>
</metadata></svg>