<?xml version="1.0"?><svg version="1.1" id="Layer_1" xmlns="http://www.w3.org/2000/svg" x="0" y="0" viewBox="0 0 100 100" xml:space="preserve"><path id="XMLID_2317_" d="M44.233 52.303l-17.496-6.33c-1.461-.528-2.693 1.174-1.746 2.406 8.381 10.902 16.188 25.565 21.837 38.975 1.186 2.815 5.158 2.815 6.344.001 5.653-13.41 13.46-28.074 21.841-38.976.947-1.232-.285-2.934-1.746-2.406L55.73 52.316c2.536-20.528 11.828-30.386 29.615-31.789C87.963 20.321 90 18.169 90 15.543v-.001c0-2.891-2.448-5.214-5.331-4.992C67.42 11.878 55.9 19.876 49.907 34.756 43.814 20.043 32.265 11.935 15.34 10.561c-2.886-.234-5.34 2.095-5.34 4.99 0 2.621 2.029 4.768 4.641 4.984 17.525 1.451 26.972 11.509 29.592 31.768z" fill="#323232"/><metadata xmlns:d="https://loading.io/stock/">
<d:name>merge</d:name>
<d:tags>down,plus,add,download,combine,together,merge,arrow</d:tags>
<d:license>by</d:license>
<d:slug>elvacg</d:slug>
</metadata></svg>