<?xml version="1.0"?><svg version="1.1" id="Layer_1" xmlns="http://www.w3.org/2000/svg" x="0" y="0" viewBox="0 0 100 100" xml:space="preserve"><path d="M50 18c-17.645 0-32 14.355-32 32s14.355 32 32 32 32-14.355 32-32-14.355-32-32-32zm25.782 44.199L55.359 43.112V75.93H44.641V43.112L24.218 62.199v-13.82L50 22.597l25.782 25.782v13.82z" fill="#cccccb"/><path fill="#999998" d="M24.218 48.379v13.82l20.423-19.087V75.93h10.718V43.112l20.423 19.087v-13.82L50 22.597z"/><path d="M50 10c-22.056 0-40 17.944-40 40s17.944 40 40 40 40-17.944 40-40-17.944-40-40-40zm0 72c-17.645 0-32-14.355-32-32s14.355-32 32-32 32 14.355 32 32-14.355 32-32 32z" fill="#323232"/><metadata xmlns:d="https://loading.io/stock/">
<d:name>up</d:name>
<d:tags>north,upload,top,direction,way,circle,up,arrow</d:tags>
<d:license>by</d:license>
<d:slug>ewa48l</d:slug>
</metadata></svg>