<?xml version="1.0"?><svg version="1.1" id="Layer_1" xmlns="http://www.w3.org/2000/svg" x="0" y="0" viewBox="0 0 100 100" xml:space="preserve"><path d="M51.233 38.353c.134-.015.269-.027.404-.039-.135.012-.27.024-.404.039z"/><path d="M49.224 38.685c.111-.024.219-.053.331-.075-.111.022-.22.051-.331.075z"/><path d="M45.478 39.912c.158-.07.316-.142.476-.208-.16.066-.318.138-.476.208z"/><path d="M47.431 39.162c.137-.044.277-.082.415-.123-.138.042-.278.08-.415.123z"/><path d="M45.954 39.704z" fill="#fff"/><path d="M44.315 40.473z" fill="#fff"/><path d="M51.637 38.314z" fill="#fff"/><path d="M47.846 39.04z" fill="#fff"/><path d="M49.555 38.609z" fill="#fff"/><path d="M43.96 36.095V7.5H33.719v37.095a23.95 23.95 0 0 1 10.241-8.5z" fill="gray"/><path d="M38.841 92.5l16.172-16.168H43.96V63.129c0-2.549-.345-5.456.401-7.929 1.233-4.084 5.026-6.695 9.222-6.736 2.986-.029 6.03.207 8.971-.422a18.252 18.252 0 0 0 10.305-6.31c2.803-3.445 4.275-7.808 4.44-12.223.067-1.782.016-3.574.016-5.357V7.502H67.076v14.082c0 5.01.953 11.453-3.509 14.962-2.666 2.096-6.096 1.68-9.27 1.68-4.289 0-8.377.994-11.952 3.434-3.85 2.628-6.736 6.629-7.942 11.139-.753 2.814-.683 5.655-.683 8.535v15H22.665L38.841 92.5z" fill="#323232"/><metadata xmlns:d="https://loading.io/stock/">
<d:name>merge</d:name>
<d:tags>down,bottom,below,join,together,branch,merge,arrow</d:tags>
<d:license>by</d:license>
<d:slug>fblyvd</d:slug>
</metadata></svg>