<?xml version="1.0"?><svg version="1.1" id="Layer_1" xmlns="http://www.w3.org/2000/svg" x="0" y="0" viewBox="0 0 100 100" xml:space="preserve"><path d="M7.5 66.679l16.168-16.176v11.055h12.427a23.95 23.95 0 0 0 8.5 10.241H23.668v11.053L7.5 66.679z" fill="gray"/><path d="M40.654 61.558a19.58 19.58 0 0 1-2.431-9.467v-5.078c0-5.627-4.826-8.571-9.594-8.571h-4.96v11.055L7.5 33.321l16.168-16.172v11.053h4.96c11.308 0 19.835 8.088 19.835 18.812v5.078c0 5.22 4.247 9.467 9.467 9.467H92.5V71.8H57.931c-7.438-.001-13.922-4.144-17.277-10.242z" fill="#323232"/><metadata xmlns:d="https://loading.io/stock/">
<d:name>left</d:name>
<d:tags>fork,branch,diverse,change,new,separate,left,arrow</d:tags>
<d:license>by</d:license>
<d:slug>ftr0zm</d:slug>
</metadata></svg>