<?xml version="1.0"?><svg version="1.1" id="Layer_1" xmlns="http://www.w3.org/2000/svg" x="0" y="0" viewBox="0 0 100 100" xml:space="preserve"><path d="M50 18c-17.645 0-32 14.355-32 32s14.355 32 32 32 32-14.355 32-32-14.355-32-32-32zm25.43 35.538H57.748v21.4c0 .954-.774 1.728-1.728 1.728H43.981a1.728 1.728 0 0 1-1.728-1.728v-21.4H24.571c-1.075 0-1.636-1.277-.91-2.07L49.09 23.734c.245-.267.577-.4.91-.4s.666.133.91.4l25.43 27.735c.726.792.164 2.069-.91 2.069z" fill="#cccccb"/><path d="M50 23.333c-.333 0-.666.133-.91.4L23.661 51.469c-.726.792-.164 2.07.91 2.07h17.682v21.4c0 .954.774 1.728 1.728 1.728H56.02c.954 0 1.728-.774 1.728-1.728v-21.4H75.43c1.075 0 1.636-1.277.91-2.07L50.911 23.734a1.232 1.232 0 0 0-.911-.401z" fill="#999998"/><path d="M50 10c-22.056 0-40 17.944-40 40s17.944 40 40 40 40-17.944 40-40-17.944-40-40-40zm0 72c-17.645 0-32-14.355-32-32s14.355-32 32-32 32 14.355 32 32-14.355 32-32 32z" fill="#323232"/><metadata xmlns:d="https://loading.io/stock/">
<d:name>up</d:name>
<d:tags>north,upload,top,direction,way,circle,up,arrow</d:tags>
<d:license>by</d:license>
<d:slug>fux9vv</d:slug>
</metadata></svg>