<?xml version="1.0"?><svg version="1.1" id="Layer_1" xmlns="http://www.w3.org/2000/svg" x="0" y="0" viewBox="0 0 100 100" xml:space="preserve"><path d="M50.91 23.734c-.245-.267-.578-.4-.91-.4s-.666.133-.91.4L23.66 51.469c-.726.792-.164 2.07.91 2.07h17.682v21.4c0 .954.774 1.728 1.728 1.728h12.04c.954 0 1.728-.774 1.728-1.728v-21.4H75.43c1.075 0 1.636-1.277.91-2.07L50.91 23.734z" fill="#cccccb"/><path d="M50 10c-22.091 0-40 17.909-40 40s17.909 40 40 40 40-17.909 40-40-17.909-40-40-40zm25.429 43.538H57.748v21.4c0 .954-.774 1.728-1.728 1.728H43.98a1.728 1.728 0 0 1-1.728-1.728v-21.4H24.571c-1.075 0-1.636-1.277-.91-2.07L49.09 23.734c.245-.267.578-.4.91-.4s.666.133.91.4l25.43 27.735c.726.792.164 2.069-.911 2.069z" fill="#323232"/><metadata xmlns:d="https://loading.io/stock/">
<d:name>up</d:name>
<d:tags>north,upload,top,direction,way,circle,up,arrow</d:tags>
<d:license>by</d:license>
<d:slug>gcix84</d:slug>
</metadata></svg>