<?xml version="1.0"?><svg version="1.1" id="Layer_1" xmlns="http://www.w3.org/2000/svg" x="0" y="0" viewBox="0 0 100 100" xml:space="preserve"><path id="XMLID_19_" d="M38.951 17.049l.02-9.549-24.462 14.057 24.403 14.159.02-9.541c18.576.034 28.977.036 34.854.015-5.335 10.935-17.235 34.4-26.59 52.71-11.92-18.027-24.464-36.937-25.255-37.887l-7.011 5.844a2.516 2.516 0 0 1-.105-.131c1.186 1.604 18.032 27.028 29.066 43.727a4.564 4.564 0 0 0 7.869-.435c.084-.164 8.521-16.635 16.791-32.97 4.861-9.601 8.715-17.281 11.456-22.825a491.968 491.968 0 0 0 3.734-7.682c1.016-2.158 1.75-3.717 1.75-5.139 0-.88-.28-1.707-.95-2.591a4.586 4.586 0 0 0-4.062-1.797c-.878.033-6.893.097-41.528.035zm41.042.033c.07-.014.219-.049.448-.066a4.609 4.609 0 0 0-.448.066z" fill="#323232"/><metadata xmlns:d="https://loading.io/stock/">
<d:name>left</d:name>
<d:tags>turn,back,west,left,arrow</d:tags>
<d:license>by</d:license>
<d:slug>hacf43</d:slug>
</metadata></svg>