<?xml version="1.0"?><svg version="1.1" id="Layer_1" xmlns="http://www.w3.org/2000/svg" x="0" y="0" viewBox="0 0 100 100" xml:space="preserve"><path id="XMLID_2263_" d="M52.303 55.767l-6.33 17.496c-.528 1.461 1.174 2.693 2.406 1.746 10.902-8.381 25.565-16.188 38.975-21.837 2.815-1.186 2.815-5.158.001-6.344-13.41-5.653-28.074-13.46-38.976-21.841-1.232-.947-2.934.285-2.406 1.746l6.344 17.538c-20.529-2.537-30.387-11.83-31.79-29.616C20.321 12.037 18.169 10 15.543 10h-.001c-2.891 0-5.214 2.448-4.992 5.331C11.878 32.58 19.876 44.1 34.756 50.093 20.043 56.186 11.935 67.735 10.561 84.66c-.234 2.886 2.095 5.34 4.99 5.34 2.621 0 4.768-2.029 4.984-4.641 1.451-17.525 11.509-26.972 31.768-29.592z" fill="#323232"/><metadata xmlns:d="https://loading.io/stock/">
<d:name>merge</d:name>
<d:tags>join,together,add,combine,right,merge,arrow</d:tags>
<d:license>by</d:license>
<d:slug>ik0197</d:slug>
</metadata></svg>