<?xml version="1.0"?><svg version="1.1" id="Layer_1" xmlns="http://www.w3.org/2000/svg" x="0" y="0" viewBox="0 0 100 100" xml:space="preserve"><path d="M48.767 61.647c-.134.015-.269.027-.404.039.135-.012.27-.024.404-.039z"/><path d="M50.776 61.315c-.111.024-.219.053-.331.075.112-.022.22-.051.331-.075z"/><path d="M54.523 60.088c-.158.07-.316.142-.476.208.16-.066.317-.138.476-.208z"/><path d="M52.569 60.838c-.137.044-.277.082-.415.123.138-.042.278-.08.415-.123z"/><path d="M54.046 60.296z" fill="#fff"/><path d="M55.686 59.527z" fill="#fff"/><path d="M48.363 61.686z" fill="#fff"/><path d="M52.154 60.96z" fill="#fff"/><path d="M50.445 61.391z" fill="#fff"/><path d="M56.04 63.905V92.5h10.241V55.405a23.95 23.95 0 0 1-10.241 8.5z" fill="gray"/><path d="M61.159 7.5L44.987 23.668H56.04v13.203c0 2.549.345 5.456-.401 7.929-1.233 4.084-5.026 6.695-9.222 6.736-2.986.029-6.03-.207-8.971.422a18.252 18.252 0 0 0-10.305 6.31c-2.803 3.445-4.275 7.808-4.44 12.223-.067 1.782-.016 3.574-.016 5.357v16.65h10.241V78.416c0-5.01-.953-11.453 3.509-14.962 2.666-2.096 6.096-1.68 9.27-1.68 4.289 0 8.377-.994 11.952-3.434 3.85-2.628 6.736-6.629 7.942-11.139.753-2.814.683-5.655.683-8.535v-15h11.054L61.159 7.5z" fill="#323232"/><metadata xmlns:d="https://loading.io/stock/">
<d:name>merge</d:name>
<d:tags>join,together,add,combine,up,merge,arrow</d:tags>
<d:license>by</d:license>
<d:slug>j1r1ba</d:slug>
</metadata></svg>