<?xml version="1.0"?><svg version="1.1" id="Layer_1" xmlns="http://www.w3.org/2000/svg" x="0" y="0" viewBox="0 0 100 100" xml:space="preserve"><path d="M48.768 38.353c-.134-.015-.269-.027-.404-.039.135.012.269.024.404.039z"/><path d="M50.776 38.685c-.111-.024-.219-.053-.331-.075.112.022.221.051.331.075z"/><path d="M54.523 39.912c-.158-.07-.316-.142-.476-.208.16.066.318.138.476.208z"/><path d="M52.57 39.162c-.137-.044-.277-.082-.415-.123.138.042.277.08.415.123z"/><path d="M54.047 39.704z" fill="#fff"/><path d="M55.686 40.473z" fill="#fff"/><path d="M48.364 38.314z" fill="#fff"/><path d="M52.154 39.04z" fill="#fff"/><path d="M50.446 38.609z" fill="#fff"/><path d="M56.041 36.095V7.5h10.241v37.095a23.95 23.95 0 0 0-10.241-8.5z" fill="gray"/><path d="M61.159 92.5L44.987 76.332H56.04V63.129c0-2.549.345-5.456-.401-7.929-1.233-4.084-5.026-6.695-9.222-6.736-2.986-.029-6.03.207-8.971-.422a18.252 18.252 0 0 1-10.305-6.31c-2.803-3.445-4.275-7.808-4.44-12.223-.067-1.782-.016-3.574-.016-5.357V7.502h10.241v14.082c0 5.01-.953 11.453 3.509 14.962 2.666 2.096 6.096 1.68 9.27 1.68 4.289 0 8.377.994 11.952 3.434 3.85 2.628 6.736 6.629 7.942 11.139.753 2.814.683 5.655.683 8.535v15h11.054L61.159 92.5z" fill="#323232"/><metadata xmlns:d="https://loading.io/stock/">
<d:name>merge</d:name>
<d:tags>join,together,down,bottom,below,unite,merge,arrow</d:tags>
<d:license>by</d:license>
<d:slug>jkovb9</d:slug>
</metadata></svg>