<?xml version="1.0"?><svg version="1.1" id="Layer_1" xmlns="http://www.w3.org/2000/svg" x="0" y="0" viewBox="0 0 100 100" xml:space="preserve"><path id="XMLID_2290_" d="M47.697 44.233l6.33-17.496c.528-1.461-1.174-2.693-2.406-1.746-10.902 8.381-25.565 16.188-38.975 21.837-2.815 1.186-2.815 5.158-.001 6.344 13.41 5.653 28.074 13.46 38.976 21.841 1.232.947 2.934-.285 2.406-1.746L47.684 55.73c20.528 2.536 30.386 11.828 31.789 29.615.206 2.618 2.358 4.655 4.984 4.655h.001c2.891 0 5.214-2.448 4.992-5.331C88.122 67.42 80.124 55.9 65.244 49.907c14.713-6.094 22.821-17.643 24.195-34.567.234-2.886-2.095-5.34-4.99-5.34-2.621 0-4.768 2.029-4.984 4.641-1.451 17.525-11.509 26.972-31.768 29.592z" fill="#323232"/><metadata xmlns:d="https://loading.io/stock/">
<d:name>merge</d:name>
<d:tags>together,combine,left,turn,merge,arrow</d:tags>
<d:license>by</d:license>
<d:slug>js6avo</d:slug>
</metadata></svg>