<?xml version="1.0"?><svg version="1.1" id="Layer_1" xmlns="http://www.w3.org/2000/svg" x="0" y="0" viewBox="0 0 100 100" xml:space="preserve"><path id="XMLID_180_" d="M56.127 47.553l18.59 6.725c1.552.562 2.861-1.248 1.855-2.556-8.905-11.583-17.2-27.163-23.202-41.411-1.26-2.991-5.48-2.991-6.741-.001-6.006 14.249-14.301 29.83-23.207 41.413-1.006 1.309.303 3.118 1.855 2.556l18.634-6.74C41.217 69.35 31.344 79.825 12.446 81.315c-2.782.219-4.946 2.506-4.946 5.296v.001c0 3.072 2.601 5.54 5.664 5.304 18.328-1.411 30.567-9.909 36.935-25.719 6.475 15.633 18.746 24.248 36.728 25.707 3.066.249 5.674-2.226 5.674-5.302 0-2.785-2.156-5.066-4.932-5.296-18.621-1.542-28.657-12.228-31.442-33.753z" fill="#323232"/><metadata xmlns:d="https://loading.io/stock/">
<d:name>merge</d:name>
<d:tags>join,add,increase,conflict,merge,arrow</d:tags>
<d:license>by</d:license>
<d:slug>kiz9a4</d:slug>
</metadata></svg>