<?xml version="1.0"?><svg version="1.1" id="Layer_1" xmlns="http://www.w3.org/2000/svg" x="0" y="0" viewBox="0 0 100 100" xml:space="preserve"><path d="M44.855 42.021l-.006-.258v-.136c-.316 5.648-2.728 6.733-7.498 8.879-5.63 2.533-14.138 6.362-14.138 20.737V92.5h10.303V71.244c0-7.713 2.864-9.002 8.063-11.341 2.672-1.202 5.823-2.63 8.422-5.172-2.722-2.662-4.837-6.547-5.146-12.71z" fill="gray"/><path d="M62.649 50.507c-4.77-2.146-7.182-3.232-7.498-8.879V23.766h11.12L50.001 7.5 33.727 23.766h11.121V41.764l.006.258c.309 6.163 2.424 10.048 5.145 12.71 2.599 2.542 5.749 3.97 8.422 5.172 5.2 2.339 8.063 3.628 8.063 11.341V92.5h10.303V71.244c.001-14.375-8.507-18.203-14.138-20.737z" fill="#323232"/><metadata xmlns:d="https://loading.io/stock/">
<d:name>merge</d:name>
<d:tags>join,combine,top,north,merge,arrow</d:tags>
<d:license>by</d:license>
<d:slug>l1fvhk</d:slug>
</metadata></svg>