<?xml version="1.0"?><svg version="1.1" id="Layer_1" xmlns="http://www.w3.org/2000/svg" x="0" y="0" viewBox="0 0 100 100" xml:space="preserve"><path id="XMLID_314_" d="M54.595 43.463v-9.175h19.933c1.25 0 1.876-1.511.992-2.395l-23.606-23.6a2.707 2.707 0 0 0-3.828 0l-23.606 23.6c-.884.884-.258 2.395.992 2.395h19.932v5.338a3.77 3.77 0 0 1-1.12 2.683l-7.27 7.188a3.774 3.774 0 0 0-.003 5.364L50.246 67.98a3.774 3.774 0 0 1 .012 5.349L37.586 86.001l6.499 6.499 19.201-19.2a3.774 3.774 0 0 0-.012-5.349L50.075 54.869a3.773 3.773 0 0 1 .003-5.363l3.397-3.359a3.777 3.777 0 0 0 1.12-2.684z" fill="#323232"/><metadata xmlns:d="https://loading.io/stock/">
<d:name>up</d:name>
<d:tags>north,upload,top,direction,way,curve,bend,up,arrow</d:tags>
<d:license>by</d:license>
<d:slug>lcvlc8</d:slug>
</metadata></svg>