<?xml version="1.0"?><svg version="1.1" id="Layer_1" xmlns="http://www.w3.org/2000/svg" x="0" y="0" viewBox="0 0 100 100" xml:space="preserve"><path d="M55.145 57.979l.006.258v.136c.316-5.648 2.728-6.733 7.498-8.879 5.63-2.533 14.138-6.362 14.138-20.737V7.5H66.485v21.256c0 7.713-2.864 9.002-8.063 11.341-2.672 1.202-5.823 2.63-8.422 5.172 2.721 2.662 4.836 6.547 5.145 12.71z" fill="gray"/><path d="M37.351 49.493c4.77 2.146 7.182 3.232 7.498 8.879v17.862h-11.12L49.999 92.5l16.274-16.266H55.152V58.236l-.006-.258c-.309-6.163-2.424-10.048-5.145-12.71-2.599-2.542-5.749-3.97-8.422-5.172-5.2-2.339-8.063-3.628-8.063-11.341V7.5H23.212v21.256c0 14.375 8.508 18.203 14.139 20.737z" fill="#323232"/><metadata xmlns:d="https://loading.io/stock/">
<d:name>merge</d:name>
<d:tags>join,down,together,combine,add,plus,merge,arrow</d:tags>
<d:license>by</d:license>
<d:slug>lj8a5t</d:slug>
</metadata></svg>