<?xml version="1.0"?><svg version="1.1" id="Layer_1" xmlns="http://www.w3.org/2000/svg" x="0" y="0" viewBox="0 0 100 100" xml:space="preserve"><path d="M57.979 44.855l.258-.006h.136c-5.648-.316-6.733-2.728-8.879-7.498-2.533-5.63-6.362-14.138-20.737-14.138H7.5v10.303h21.256c7.713 0 9.002 2.864 11.341 8.063 1.202 2.672 2.63 5.823 5.172 8.422 2.662-2.722 6.547-4.837 12.71-5.146z" fill="gray"/><path d="M49.493 62.649c2.146-4.77 3.232-7.182 8.879-7.498h17.862v11.12L92.5 50.001 76.234 33.727v11.121H58.236l-.258.006c-6.163.309-10.048 2.424-12.71 5.145-2.542 2.599-3.97 5.749-5.172 8.422-2.339 5.2-3.628 8.063-11.341 8.063H7.5v10.303h21.256c14.375.001 18.203-8.507 20.737-14.138z" fill="#323232"/><metadata xmlns:d="https://loading.io/stock/">
<d:name>merge</d:name>
<d:tags>join,right,together,combine,add,plus,merge,arrow</d:tags>
<d:license>by</d:license>
<d:slug>lqrgwp</d:slug>
</metadata></svg>