<?xml version="1.0"?><svg version="1.1" id="Layer_1" xmlns="http://www.w3.org/2000/svg" x="0" y="0" viewBox="0 0 100 100" xml:space="preserve"><path id="XMLID_95_" d="M82.951 38.951l9.549.02-14.057-24.462-14.16 24.403 9.541.02c-.034 18.576-.036 28.977-.015 34.854C62.875 68.451 39.41 56.551 21.1 47.196c18.027-11.92 36.937-24.464 37.887-25.255l-5.844-7.011c.028-.024.071-.06.131-.105-1.604 1.187-27.028 18.033-43.727 29.066a4.564 4.564 0 0 0 .435 7.869c.164.084 16.635 8.521 32.97 16.791 9.601 4.861 17.281 8.715 22.825 11.456a491.968 491.968 0 0 0 7.682 3.734c2.158 1.016 3.717 1.75 5.139 1.75.88 0 1.707-.28 2.591-.95a4.586 4.586 0 0 0 1.797-4.062c-.033-.878-.097-6.893-.035-41.528zm-.033 41.042c.014.07.049.219.066.448a4.609 4.609 0 0 0-.066-.448z" fill="#323232"/><metadata xmlns:d="https://loading.io/stock/">
<d:name>arrow</d:name>
<d:tags>top,up,arrow</d:tags>
<d:license>by</d:license>
<d:slug>o6cjko</d:slug>
</metadata></svg>