<?xml version="1.0"?><svg version="1.1" id="Layer_1" xmlns="http://www.w3.org/2000/svg" x="0" y="0" viewBox="0 0 100 100" xml:space="preserve"><path d="M50.986 21.545a1.334 1.334 0 0 0-1.972 0L21.466 51.591c-.787.858-.178 2.242.986 2.242h19.155v23.184c0 1.034.838 1.872 1.872 1.872h13.043a1.872 1.872 0 0 0 1.872-1.872V53.833h19.155c1.164 0 1.773-1.384.986-2.242L50.986 21.545z" fill="#cccccb"/><path d="M82.407 10H17.593A7.594 7.594 0 0 0 10 17.593v64.814C10 86.6 13.4 90 17.593 90h64.814C86.6 90 90 86.6 90 82.407V17.593C90 13.4 86.6 10 82.407 10zm-4.859 43.833H58.393v23.184a1.872 1.872 0 0 1-1.872 1.872H43.479a1.872 1.872 0 0 1-1.872-1.872V53.833H22.452c-1.164 0-1.773-1.384-.986-2.242l27.548-30.046a1.334 1.334 0 0 1 1.972 0l27.548 30.046c.787.858.179 2.242-.986 2.242z" fill="#323232"/><metadata xmlns:d="https://loading.io/stock/">
<d:name>up</d:name>
<d:tags>north,upload,top,direction,way,square,up,arrow</d:tags>
<d:license>by</d:license>
<d:slug>p63awg</d:slug>
</metadata></svg>