<?xml version="1.0"?><svg version="1.1" id="Layer_1" xmlns="http://www.w3.org/2000/svg" x="0" y="0" viewBox="0 0 100 100" xml:space="preserve"><path fill="#999998" d="M43.319 49.972v36.861h13.362V49.972H82.119L50 14.941 17.881 49.972h19.771z"/><path d="M9.472 55.639h28.18v34.107a2.754 2.754 0 0 0 2.754 2.754h19.188a2.754 2.754 0 0 0 2.754-2.754V55.639h28.18c1.713 0 2.608-2.036 1.451-3.298L51.451 8.138A1.963 1.963 0 0 0 50 7.5c-.53 0-1.061.213-1.451.638L8.021 52.341c-1.157 1.262-.262 3.298 1.451 3.298zM50 14.941l32.119 35.032H56.681v36.861H43.319V49.972H17.881L50 14.941z" fill="#323232"/><metadata xmlns:d="https://loading.io/stock/">
<d:name>up</d:name>
<d:tags>north,upload,top,direction,way,up,arrow</d:tags>
<d:license>by</d:license>
<d:slug>pskaok</d:slug>
</metadata></svg>