<?xml version="1.0"?><svg version="1.1" id="Layer_1" xmlns="http://www.w3.org/2000/svg" x="0" y="0" viewBox="0 0 100 100" xml:space="preserve"><path d="M38.353 51.233c-.015.134-.027.269-.039.404.012-.135.024-.27.039-.404z"/><path d="M38.685 49.224c-.024.111-.053.219-.075.331.022-.112.051-.22.075-.331z"/><path d="M39.912 45.477c-.07.158-.142.316-.208.476.067-.16.138-.317.208-.476z"/><path d="M39.163 47.431c-.044.137-.082.277-.123.415.041-.138.079-.278.123-.415z"/><path d="M39.704 45.954z" fill="#fff"/><path d="M40.473 44.314z" fill="#fff"/><path d="M38.314 51.637z" fill="#fff"/><path d="M39.04 47.846z" fill="#fff"/><path d="M38.61 49.555z" fill="#fff"/><path d="M36.096 43.96H7.5V33.719h37.095a23.947 23.947 0 0 0-8.499 10.241z" fill="gray"/><path d="M92.5 38.841L76.332 55.013V43.96H63.129c-2.549 0-5.456-.345-7.929.401-4.084 1.233-6.695 5.026-6.736 9.222-.029 2.986.207 6.03-.422 8.971a18.252 18.252 0 0 1-6.31 10.305c-3.445 2.803-7.808 4.275-12.223 4.44-1.782.067-3.574.016-5.357.016H7.502V67.076h14.082c5.01 0 11.453.953 14.962-3.509 2.096-2.666 1.68-6.096 1.68-9.27 0-4.289.994-8.377 3.434-11.952 2.628-3.85 6.629-6.736 11.139-7.942 2.814-.753 5.655-.683 8.535-.683h15V22.665L92.5 38.841z" fill="#323232"/><metadata xmlns:d="https://loading.io/stock/">
<d:name>merge</d:name>
<d:tags>top,right,join,together,merge,arrow</d:tags>
<d:license>by</d:license>
<d:slug>py9eu1</d:slug>
</metadata></svg>