<?xml version="1.0"?><svg version="1.1" id="Layer_1" xmlns="http://www.w3.org/2000/svg" x="0" y="0" viewBox="0 0 100 100" xml:space="preserve"><path d="M33.32 7.5L17.148 23.668H28.2v33.701c2.506-3.75 6.036-6.643 10.241-8.314V23.668h11.055L33.32 7.5z" fill="#999998"/><path d="M61.557 63.905V92.5h10.241V55.405a23.943 23.943 0 0 1-10.241 8.5z" fill="gray"/><path d="M66.676 7.5L50.504 23.668h11.053v12.599c0 2.425.282 5.068-.147 7.472-.759 4.246-4.449 7.526-8.754 7.781-2.735.162-5.49-.18-8.216.188a18.438 18.438 0 0 0-12.187 7.098c-2.74 3.613-4.025 8.074-4.053 12.576-.01 1.663 0 3.326 0 4.989V92.5h10.241V78.809c0-4.799-.933-10.938 2.759-14.68 2.528-2.563 5.841-2.351 9.141-2.351 4.354 0 8.461-.643 12.215-3.026a19.993 19.993 0 0 0 8.591-11.672c.772-2.885.652-5.848.652-8.801v-14.61h11.054L66.676 7.5z" fill="#323232"/><metadata xmlns:d="https://loading.io/stock/">
<d:name>branch</d:name>
<d:tags>up,merge,fork,change,redirect,course,branch,arrow</d:tags>
<d:license>by</d:license>
<d:slug>r9qsb8</d:slug>
</metadata></svg>