<?xml version="1.0"?><svg version="1.1" id="Layer_1" xmlns="http://www.w3.org/2000/svg" x="0" y="0" viewBox="0 0 100 100" xml:space="preserve"><path d="M66.68 92.5L50.504 76.332h11.055V63.905a23.95 23.95 0 0 0 10.241-8.5v20.927h11.053L66.68 92.5z" fill="gray"/><path d="M61.559 59.346a19.58 19.58 0 0 1-9.467 2.431h-5.078c-5.627 0-8.571 4.826-8.571 9.594v4.96h11.055L33.321 92.5 17.149 76.332h11.053v-4.96c0-11.308 8.088-19.835 18.812-19.835h5.078c5.22 0 9.467-4.247 9.467-9.467V7.5H71.8v34.569c-.001 7.438-4.144 13.922-10.241 17.277z" fill="#323232"/><metadata xmlns:d="https://loading.io/stock/">
<d:name>break</d:name>
<d:tags>independent,down,below,separate,branch,fork,break,arrow</d:tags>
<d:license>by</d:license>
<d:slug>rnapro</d:slug>
</metadata></svg>