<?xml version="1.0"?><svg version="1.1" id="Layer_1" xmlns="http://www.w3.org/2000/svg" x="0" y="0" viewBox="0 0 100 100" xml:space="preserve"><path id="XMLID_65_" d="M81.866 28.742l-20.886 3.53 4.08 4.932c-4.416 4.422-7.992 9.095-10.813 14.217V25.843h6.344L49.998 7.5 39.406 25.843h6.344v25.571c-2.82-5.119-6.396-9.79-10.809-14.209l4.08-4.932-20.886-3.53 7.383 19.854 3.995-4.829c9.974 10.147 16.42 22.951 16.238 48.673v.03h.004v.03L50 92.47l4.246.03v-.06h.004c-.183-25.722 6.263-38.526 16.238-48.673l3.995 4.829 7.383-19.854z" fill="#323232"/><metadata xmlns:d="https://loading.io/stock/">
<d:name>choice</d:name>
<d:tags>opportunity,chance,option,diverse,divergence,break,fork,choice,arrow</d:tags>
<d:license>by</d:license>
<d:slug>s9rpp7</d:slug>
</metadata></svg>