<?xml version="1.0"?><svg version="1.1" id="Layer_1" xmlns="http://www.w3.org/2000/svg" x="0" y="0" viewBox="0 0 100 100" xml:space="preserve"><path id="XMLID_93_" d="M18.134 71.258l20.886-3.53-4.08-4.932c4.416-4.422 7.992-9.095 10.813-14.217v25.578H39.41L50.002 92.5l10.592-18.343H54.25V48.586c2.82 5.119 6.396 9.79 10.809 14.209l-4.08 4.932 20.886 3.53-7.383-19.854-3.995 4.829C60.514 46.086 54.068 33.282 54.251 7.56v-.03h-.004V7.5L50 7.53l-4.246-.03v.06h-.004c.183 25.722-6.263 38.526-16.238 48.673l-3.995-4.829-7.383 19.854z" fill="#323232"/><metadata xmlns:d="https://loading.io/stock/">
<d:name>choice</d:name>
<d:tags>opportunity,chance,option,diverse,divergence,bottom,down,break,fork,choice,arrow</d:tags>
<d:license>by</d:license>
<d:slug>smiu02</d:slug>
</metadata></svg>