<?xml version="1.0"?><svg version="1.1" id="Layer_1" xmlns="http://www.w3.org/2000/svg" x="0" y="0" viewBox="0 0 100 100" xml:space="preserve"><path d="M7.5 66.68l16.168 16.172V71.8h33.701c-3.75-2.506-6.643-6.035-8.314-10.241H23.668V50.504L7.5 66.68z" fill="#999998"/><path d="M63.905 38.443H92.5V28.202H55.405a23.943 23.943 0 0 1 8.5 10.241z" fill="gray"/><path d="M7.5 33.324l16.168 16.172V38.443h12.599c2.425 0 5.068-.282 7.472.147 4.246.759 7.526 4.449 7.781 8.754.162 2.735-.18 5.49.188 8.216a18.438 18.438 0 0 0 7.098 12.187c3.613 2.74 8.074 4.025 12.576 4.053 1.663.01 3.326 0 4.989 0H92.5V61.559H78.809c-4.799 0-10.938.933-14.68-2.759-2.563-2.528-2.351-5.841-2.351-9.141 0-4.354-.643-8.461-3.026-12.215a19.993 19.993 0 0 0-11.672-8.591c-2.885-.772-5.848-.652-8.801-.652h-14.61V17.148L7.5 33.324z" fill="#323232"/><metadata xmlns:d="https://loading.io/stock/">
<d:name>branch</d:name>
<d:tags>left,merge,fork,change,redirect,course,branch,arrow</d:tags>
<d:license>by</d:license>
<d:slug>ts4cd7</d:slug>
</metadata></svg>