<?xml version="1.0"?><svg version="1.1" id="Layer_1" xmlns="http://www.w3.org/2000/svg" x="0" y="0" viewBox="0 0 100 100" xml:space="preserve"><path fill="#323232" d="M49.999 44.804l1.648-.952 2.853-1.646V29.429h6.719L50 10 38.781 29.429H45.5v12.777l2.852 1.647z"/><path fill="#666" d="M45.5 47.403v-5.197l-11.065-6.388 3.36-5.82L15.359 30l11.217 19.431 3.359-5.819L41 50.001l2.853-1.648z"/><path fill="#b3b4b4" d="M45.5 52.599l-1.648-.952L41 50.001l-11.065 6.388-3.359-5.82L15.359 70l22.436.002-3.36-5.819L45.5 57.794V54.5z"/><path fill="#323232" d="M50.001 55.196l-1.648.952-2.853 1.646v12.777h-6.719L50 90l11.219-19.429H54.5V57.794l-2.852-1.647z"/><path fill="#666" d="M70.065 56.388L59 49.999l-2.853 1.648-1.647.95v5.197l11.065 6.388-3.36 5.82L84.641 70 73.424 50.569z"/><path fill="#b3b4b4" d="M54.5 47.401l1.648.952L59 49.999l11.065-6.388 3.359 5.82L84.641 30l-22.436-.002 3.36 5.819L54.5 42.206V45.5z"/><path fill="#e6e6e6" d="M56.148 48.353l-1.648-.952v-5.195l-2.853 1.646-1.648.952-1.647-.951-2.852-1.647v5.197l-1.647.95L41 50.001l2.852 1.646 1.648.952v5.195l2.853-1.646 1.648-.952 1.647.951 2.852 1.647v-5.197l1.647-.95L59 49.999z"/><metadata xmlns:d="https://loading.io/stock/">
<d:name>choice</d:name>
<d:tags>star,hexagon,opportunity,option,direction,way,start,settle,move,choice,arrow</d:tags>
<d:license>by</d:license>
<d:slug>v53ejq</d:slug>
</metadata></svg>