<?xml version="1.0"?><svg version="1.1" id="Layer_1" xmlns="http://www.w3.org/2000/svg" x="0" y="0" viewBox="0 0 100 100" xml:space="preserve"><circle cx="50" cy="50" r="40" fill="#323232"/><path fill="#acbd81" d="M49.999 46.25l1.19-.687 2.058-1.188v-9.221h4.85L50 21.132l-8.097 14.022h4.849v9.221l2.059 1.189z"/><path fill="#666" d="M46.752 48.126v-3.751l-7.985-4.61 2.425-4.2L25 35.566l8.095 14.023 2.424-4.199L43.505 50l2.059-1.188z"/><path fill="#b3b4b4" d="M46.753 51.876l-1.19-.687L43.505 50l-7.985 4.611-2.425-4.2L25 64.434l16.192.001-2.425-4.199 7.986-4.611v-2.377z"/><path fill="#acbd81" d="M50.001 53.75l-1.19.687-2.058 1.188v9.221h-4.85L50 78.868l8.097-14.022h-4.849v-9.221l-2.059-1.189z"/><path fill="#666" d="M64.481 54.61L56.495 50l-2.059 1.188-1.188.686v3.751l7.985 4.61-2.425 4.2L75 64.434l-8.095-14.023z"/><path fill="#b3b4b4" d="M53.247 48.124l1.19.687L56.495 50l7.985-4.611 2.425 4.2L75 35.566l-16.192-.001 2.425 4.199-7.986 4.611v2.377z"/><path fill="#e6e6e6" d="M54.437 48.811l-1.19-.687V44.375l-2.058 1.188-1.19.687-1.188-.686-2.059-1.189v3.751l-1.188.686L43.505 50l2.058 1.189 1.19.687V55.625l2.058-1.188 1.19-.687 1.188.686 2.059 1.189v-3.751l1.188-.686L56.495 50z"/><metadata xmlns:d="https://loading.io/stock/">
<d:name>choice</d:name>
<d:tags>star,hexagon,opportunity,option,direction,way,start,settle,move,choice,arrow</d:tags>
<d:license>by</d:license>
<d:slug>vqtq50</d:slug>
</metadata></svg>