<?xml version="1.0"?><svg version="1.1" id="Layer_1" xmlns="http://www.w3.org/2000/svg" x="0" y="0" viewBox="0 0 100 100" xml:space="preserve"><circle cx="50" cy="50" r="40" fill="#323232"/><path fill="#acbd81" d="M50 25.449l-8.097 14.022h4.849V52.442l3.249-1.876 3.246 1.875V39.471h4.85z"/><path fill="#666" d="M46.752 56.191v-3.749l-1.188.686-2.058 1.188-7.986 4.611-2.425-4.2L25 68.75l16.192.001-2.425-4.199 7.985-4.61 2.059-1.189 1.19-.687z"/><path fill="#b3b4b4" d="M75 68.75l-8.095-14.023-2.424 4.199-7.985-4.61-2.059-1.189-1.19-.686v3.751l-3.246 1.874 1.188.686 2.058 1.189 7.986 4.61-2.425 4.2z"/><path fill="#e6e6e6" d="M50.001 50.566l-3.249 1.876v3.749l3.249 1.875 3.246-1.874v-3.751z"/><metadata xmlns:d="https://loading.io/stock/">
<d:name>choice</d:name>
<d:tags>triangle,diverse,opportunity,option,direction,way,start,settle,move,choice,arrow</d:tags>
<d:license>by</d:license>
<d:slug>w3864g</d:slug>
</metadata></svg>