<?xml version="1.0"?><svg version="1.1" id="Layer_1" xmlns="http://www.w3.org/2000/svg" x="0" y="0" viewBox="0 0 100 100" xml:space="preserve"><path fill="#323232" d="M50 5.359L37.045 27.794h7.758v20.754l5.198-3.001 5.195 2.999V27.794h7.759z"/><path fill="#666" d="M44.803 54.546v-5.998l-1.901 1.098-3.293 1.901-12.778 7.377-3.879-6.72L10 74.641l25.907.002-3.879-6.719 12.775-7.376 3.295-1.902 1.903-1.099z"/><path fill="#b3b4b4" d="M90 74.641L77.048 52.204l-3.879 6.719-12.776-7.376-3.294-1.902-1.903-1.099v6.002l-5.195 2.999 1.902 1.098 3.293 1.901 12.777 7.377-3.88 6.72z"/><path fill="#e6e6e6" d="M50.001 45.547l-5.198 3.001v5.998l5.198 3.001 5.195-2.999v-6.002z"/><metadata xmlns:d="https://loading.io/stock/">
<d:name>choice</d:name>
<d:tags>triangle,diverse,opportunity,option,direction,way,start,settle,move,choice,arrow</d:tags>
<d:license>by</d:license>
<d:slug>wp5v05</d:slug>
</metadata></svg>