<?xml version="1.0"?><svg version="1.1" id="Layer_1" xmlns="http://www.w3.org/2000/svg" x="0" y="0" viewBox="0 0 100 100" xml:space="preserve"><path id="XMLID_79_" d="M28.742 18.133l3.53 20.886 4.932-4.08c4.422 4.416 9.095 7.993 14.217 10.814H25.843v-6.344L7.5 50.002l18.343 10.593v-6.344h25.571c-5.119 2.821-9.79 6.396-14.209 10.81l-4.932-4.08-3.53 20.887 19.854-7.383-4.829-3.995c10.147-9.975 22.951-16.421 48.673-16.238h.03v-.004h.03L92.47 50l.03-4.247h-.06v-.004c-25.722.183-38.526-6.264-48.673-16.238l4.829-3.995-19.854-7.383z" fill="#323232"/><metadata xmlns:d="https://loading.io/stock/">
<d:name>choice</d:name>
<d:tags>opportunity,chance,option,diverse,divergence,left,break,fork,choice,arrow</d:tags>
<d:license>by</d:license>
<d:slug>xl9kbi</d:slug>
</metadata></svg>