<?xml version="1.0"?><svg version="1.1" id="Layer_1" xmlns="http://www.w3.org/2000/svg" x="0" y="0" viewBox="0 0 100 100" xml:space="preserve"><path id="XMLID_51_" d="M71.258 81.865l-3.53-20.885-4.932 4.08c-4.422-4.416-9.095-7.992-14.217-10.813h25.578v6.344L92.5 49.998 74.157 39.406v6.344H48.586c5.119-2.82 9.79-6.396 14.209-10.809l4.932 4.08 3.53-20.885-19.854 7.383 4.829 3.995C46.086 39.486 33.282 45.932 7.56 45.749h-.03v.004H7.5L7.53 50l-.03 4.246h.06v.004c25.722-.183 38.526 6.263 48.673 16.237l-4.829 3.995 19.854 7.383z" fill="#323232"/><metadata xmlns:d="https://loading.io/stock/">
<d:name>choice</d:name>
<d:tags>opportunity,chance,option,diverse,divergence,right,break,fork,choice,arrow</d:tags>
<d:license>by</d:license>
<d:slug>y7qkmt</d:slug>
</metadata></svg>