<?xml version="1.0"?><svg version="1.1" id="Layer_1" xmlns="http://www.w3.org/2000/svg" x="0" y="0" viewBox="0 0 100 100" xml:space="preserve"><circle cx="50" cy="50" r="40" fill="#323232"/><path fill="#a0c8d7" d="M49.999 47.341l2.09-.679 1.164-.378V35.891h4.857L50 21.846l-8.11 14.045h4.857v10.393l1.164.378z"/><path fill="#666" d="M46.747 49.705V46.284l-9.884-3.211 1.501-4.62L22.5 41.826l10.851 12.053 1.501-4.619 9.885 3.212.719-.991z"/><path fill="#b3b4b4" d="M47.99 53.529l-2.089-.679-1.164-.378-6.109 8.408-3.93-2.856-1.694 16.13 14.817-6.595-3.93-2.855L50 56.296l-.719-.991z"/><path fill="#acbd81" d="M61.373 60.879l-6.109-8.408-1.165.378-2.088.679-1.291 1.777-.72.991 6.109 8.407-3.93 2.856 14.817 6.595-1.694-16.13z"/><path fill="#849b87" d="M53.253 49.703l1.291 1.778.72.99 9.884-3.212 1.501 4.62L77.5 41.826l-15.864-3.373 1.501 4.619-9.884 3.212v1.224z"/><path fill="#e6e6e6" d="M54.544 51.481l-1.291-1.778V46.284l-1.164.378-2.09.679-2.088-.679-1.164-.378V49.705l-1.291 1.776-.719.991 1.164.378 2.089.679 1.291 1.776.719.991.72-.991 1.291-1.777 2.088-.679 1.165-.378z"/><metadata xmlns:d="https://loading.io/stock/">
<d:name>choice</d:name>
<d:tags>opportunity,option,direction,way,start,settle,move,choice,arrow</d:tags>
<d:license>by</d:license>
<d:slug>ylwztj</d:slug>
</metadata></svg>