<?xml version="1.0"?><svg version="1.1" id="Layer_1" xmlns="http://www.w3.org/2000/svg" x="0" y="0" viewBox="0 0 100 100" xml:space="preserve"><path fill="#323232" d="M49.998 45.222l3.04-.988 1.693-.55V28.567h7.066L50 8.138 38.203 28.567h7.065v15.117l1.694.551z"/><path fill="#666" d="M45.268 48.661v-4.977l-14.377-4.671 2.184-6.72L10 37.2l15.784 17.532 2.183-6.719 14.377 4.672 1.047-1.441z"/><path fill="#b3b4b4" d="M47.077 54.222l-3.04-.987-1.693-.55-8.885 12.229-5.716-4.153-2.464 23.462 21.551-9.594-5.715-4.152 8.886-12.231-1.047-1.44z"/><path fill="#acbd81" d="M66.542 64.914l-8.886-12.231-1.694.551-3.036.987-1.879 2.585-1.046 1.44 8.885 12.23-5.716 4.153 21.551 9.594-2.464-23.462z"/><path fill="#849b87" d="M54.731 48.658l1.879 2.585 1.046 1.44 14.377-4.671 2.183 6.72L90 37.2l-23.075-4.907 2.183 6.719-14.377 4.672v1.781z"/><path fill="#e6e6e6" d="M56.61 51.243l-1.879-2.585v-4.974l-1.693.55-3.04.988-3.036-.987-1.694-.551v4.977l-1.877 2.583-1.047 1.441 1.693.55 3.04.987 1.877 2.584 1.047 1.44 1.046-1.44 1.879-2.585 3.036-.987 1.694-.551z"/><metadata xmlns:d="https://loading.io/stock/">
<d:name>choice</d:name>
<d:tags>opportunity,option,direction,way,start,settle,move,choice,arrow</d:tags>
<d:license>by</d:license>
<d:slug>z8ggc0</d:slug>
</metadata></svg>